<?xml version="1.0" encoding="UTF-8" standalone="no"?>
<!DOCTYPE svg PUBLIC "-//W3C//DTD SVG 1.1//EN"
 "http://www.w3.org/Graphics/SVG/1.1/DTD/svg11.dtd">
<!-- Generated by graphviz version 2.38.0 (20140413.2041)
 -->
<!-- Title: g1 Pages: 1 -->
<svg width="2244pt" height="2226pt"
 viewBox="0.00 0.00 2243.62 2226.45" xmlns="http://www.w3.org/2000/svg" xmlns:xlink="http://www.w3.org/1999/xlink">
<g id="graph0" class="graph" transform="scale(1 1) rotate(0) translate(1153.47 1168.21)">
<title>g1</title>
<polygon fill="white" stroke="none" points="-1153.47,1058.24 -1153.47,-1168.21 1090.15,-1168.21 1090.15,1058.24 -1153.47,1058.24"/>
<!-- ignite_rs -->
<g id="node1" class="node"><title>ignite_rs</title>
<polygon fill="#bcee68" stroke="#bcee68" points="-1030.58,209.074 -1133.58,209.074 -1133.58,275.074 -1030.58,275.074 -1030.58,209.074"/>
<polygon fill="none" stroke="#bcee68" points="-1026.58,205.074 -1137.58,205.074 -1137.58,279.074 -1026.58,279.074 -1026.58,205.074"/>
<text text-anchor="middle" x="-1082.08" y="233.874" font-family="Times New Roman,serif" font-size="26.00">Apache </text>
<text text-anchor="middle" x="-1082.08" y="262.874" font-family="Times New Roman,serif" font-size="26.00">Ignite</text>
</g>
<!-- ignite_kv -->
<g id="node2" class="node"><title>ignite_kv</title>
<polygon fill="#bcee68" stroke="#bcee68" points="485.05,-892.698 382.05,-892.698 382.05,-826.698 485.05,-826.698 485.05,-892.698"/>
<polygon fill="none" stroke="#bcee68" points="489.05,-896.698 378.05,-896.698 378.05,-822.698 489.05,-822.698 489.05,-896.698"/>
<text text-anchor="middle" x="433.55" y="-867.898" font-family="Times New Roman,serif" font-size="26.00">Apache </text>
<text text-anchor="middle" x="433.55" y="-838.898" font-family="Times New Roman,serif" font-size="26.00">Ignite</text>
</g>
<!-- memcached_kv -->
<g id="node3" class="node"><title>memcached_kv</title>
<polygon fill="#bcee68" stroke="#bcee68" stroke-dasharray="5,2" points="961.761,-734.479 817.761,-734.479 817.761,-697.479 961.761,-697.479 961.761,-734.479"/>
<polygon fill="none" stroke="#bcee68" stroke-dasharray="5,2" points="965.761,-738.479 813.761,-738.479 813.761,-693.479 965.761,-693.479 965.761,-738.479"/>
<text text-anchor="middle" x="889.761" y="-709.679" font-family="Times New Roman,serif" font-size="26.00">Memcached</text>
</g>
<!-- timesten_rs -->
<g id="node4" class="node"><title>timesten_rs</title>
<polygon fill="#ff7256" stroke="#ff7256" points="-947.429,-221.231 -1069.43,-221.231 -1069.43,-184.231 -947.429,-184.231 -947.429,-221.231"/>
<polygon fill="none" stroke="#ff7256" points="-943.429,-225.231 -1073.43,-225.231 -1073.43,-180.231 -943.429,-180.231 -943.429,-225.231"/>
<text text-anchor="middle" x="-1008.43" y="-196.431" font-family="Times New Roman,serif" font-size="26.00">TimesTen</text>
</g>
<!-- hana_rs -->
<g id="node5" class="node"><title>hana_rs</title>
<polygon fill="#ff7256" stroke="#ff7256" points="-486.365,-173.763 -576.365,-173.763 -576.365,-107.763 -486.365,-107.763 -486.365,-173.763"/>
<polygon fill="none" stroke="#ff7256" points="-482.365,-177.763 -580.365,-177.763 -580.365,-103.763 -482.365,-103.763 -482.365,-177.763"/>
<text text-anchor="middle" x="-531.365" y="-148.963" font-family="Times New Roman,serif" font-size="26.00">SAP </text>
<text text-anchor="middle" x="-531.365" y="-119.963" font-family="Times New Roman,serif" font-size="26.00">HANA</text>
</g>
<!-- hana_cs -->
<g id="node6" class="node"><title>hana_cs</title>
<polygon fill="#ff7256" stroke="#ff7256" points="-134.414,-1160.21 -224.414,-1160.21 -224.414,-1094.21 -134.414,-1094.21 -134.414,-1160.21"/>
<polygon fill="none" stroke="#ff7256" points="-130.414,-1164.21 -228.414,-1164.21 -228.414,-1090.21 -130.414,-1090.21 -130.414,-1164.21"/>
<text text-anchor="middle" x="-179.414" y="-1135.41" font-family="Times New Roman,serif" font-size="26.00">SAP </text>
<text text-anchor="middle" x="-179.414" y="-1106.41" font-family="Times New Roman,serif" font-size="26.00">HANA</text>
</g>
<!-- hana_ds -->
<g id="node7" class="node"><title>hana_ds</title>
<polygon fill="#ff7256" stroke="#ff7256" points="937.323,575.459 847.323,575.459 847.323,641.459 937.323,641.459 937.323,575.459"/>
<polygon fill="none" stroke="#ff7256" points="941.323,571.459 843.323,571.459 843.323,645.459 941.323,645.459 941.323,571.459"/>
<text text-anchor="middle" x="892.323" y="600.259" font-family="Times New Roman,serif" font-size="26.00">SAP </text>
<text text-anchor="middle" x="892.323" y="629.259" font-family="Times New Roman,serif" font-size="26.00">HANA</text>
</g>
<!-- voltdb_rs -->
<g id="node8" class="node"><title>voltdb_rs</title>
<polygon fill="#ff7256" stroke="#ff7256" points="-410.286,525.408 -508.286,525.408 -508.286,562.408 -410.286,562.408 -410.286,525.408"/>
<polygon fill="none" stroke="#ff7256" points="-406.286,521.408 -512.286,521.408 -512.286,566.408 -406.286,566.408 -406.286,521.408"/>
<text text-anchor="middle" x="-459.286" y="550.208" font-family="Times New Roman,serif" font-size="26.00">VoltDB</text>
</g>
<!-- redis_kv -->
<g id="node9" class="node"><title>redis_kv</title>
<polygon fill="#bcee68" stroke="#bcee68" points="991.366,-260.199 915.366,-260.199 915.366,-223.199 991.366,-223.199 991.366,-260.199"/>
<text text-anchor="middle" x="953.366" y="-235.399" font-family="Times New Roman,serif" font-size="26.00">Redis</text>
</g>
<!-- postgres_rs -->
<g id="node10" class="node"><title>postgres_rs</title>
<ellipse fill="#bcee68" stroke="#bcee68" cx="-1028.92" cy="479.766" rx="101.654" ry="26.3051"/>
<ellipse fill="none" stroke="#bcee68" cx="-1028.92" cy="479.766" rx="105.647" ry="30.3268"/>
<text text-anchor="middle" x="-1028.92" y="486.066" font-family="Times New Roman,serif" font-size="26.00">PostgreSQL</text>
</g>
<!-- postgres_ds -->
<g id="node11" class="node"><title>postgres_ds</title>
<ellipse fill="#bcee68" stroke="#bcee68" cx="788.516" cy="817.733" rx="101.654" ry="26.3051"/>
<ellipse fill="none" stroke="#bcee68" cx="788.516" cy="817.733" rx="105.647" ry="30.3268"/>
<text text-anchor="middle" x="788.516" y="824.033" font-family="Times New Roman,serif" font-size="26.00">PostgreSQL</text>
</g>
<!-- mysql_rs -->
<g id="node12" class="node"><title>mysql_rs</title>
<ellipse fill="#bcee68" stroke="#bcee68" cx="-672.098" cy="716.746" rx="122.165" ry="46.8253"/>
<ellipse fill="none" stroke="#bcee68" cx="-672.098" cy="716.746" rx="126.159" ry="50.8387"/>
<text text-anchor="middle" x="-672.098" y="708.546" font-family="Times New Roman,serif" font-size="26.00">MySQL </text>
<text text-anchor="middle" x="-672.098" y="737.546" font-family="Times New Roman,serif" font-size="26.00">Community ed</text>
</g>
<!-- mysql_ds -->
<g id="node13" class="node"><title>mysql_ds</title>
<ellipse fill="#bcee68" stroke="#bcee68" cx="134.91" cy="968.734" rx="122.165" ry="46.8253"/>
<ellipse fill="none" stroke="#bcee68" cx="134.91" cy="968.734" rx="126.159" ry="50.8387"/>
<text text-anchor="middle" x="134.91" y="960.534" font-family="Times New Roman,serif" font-size="26.00">MySQL </text>
<text text-anchor="middle" x="134.91" y="989.534" font-family="Times New Roman,serif" font-size="26.00">Community ed</text>
</g>
<!-- oracle_rs -->
<g id="node14" class="node"><title>oracle_rs</title>
<ellipse fill="#ff7256" stroke="#ff7256" cx="-1084.66" cy="18.7514" rx="60.6345" ry="26.3051"/>
<ellipse fill="none" stroke="#ff7256" cx="-1084.66" cy="18.7514" rx="64.6229" ry="30.3268"/>
<text text-anchor="middle" x="-1084.66" y="25.0514" font-family="Times New Roman,serif" font-size="26.00">Oracle</text>
</g>
<!-- oracle_cs -->
<g id="node15" class="node"><title>oracle_cs</title>
<ellipse fill="#ff7256" stroke="#ff7256" cx="83.7692" cy="-1045.56" rx="60.6345" ry="26.3051"/>
<ellipse fill="none" stroke="#ff7256" cx="83.7692" cy="-1045.56" rx="64.6229" ry="30.3268"/>
<text text-anchor="middle" x="83.7692" y="-1039.26" font-family="Times New Roman,serif" font-size="26.00">Oracle</text>
</g>
<!-- oracle_ds -->
<g id="node16" class="node"><title>oracle_ds</title>
<ellipse fill="#ff7256" stroke="#ff7256" cx="114.985" cy="721.446" rx="60.6345" ry="26.3051"/>
<ellipse fill="none" stroke="#ff7256" cx="114.985" cy="721.446" rx="64.6229" ry="30.3268"/>
<text text-anchor="middle" x="114.985" y="727.746" font-family="Times New Roman,serif" font-size="26.00">Oracle</text>
</g>
<!-- sqlserver_rs -->
<g id="node17" class="node"><title>sqlserver_rs</title>
<ellipse fill="#ff7256" stroke="#ff7256" cx="-815.58" cy="548.092" rx="98.0844" ry="26.3051"/>
<ellipse fill="none" stroke="#ff7256" cx="-815.58" cy="548.092" rx="102.076" ry="30.3268"/>
<text text-anchor="middle" x="-815.58" y="554.392" font-family="Times New Roman,serif" font-size="26.00">SQL Server</text>
</g>
<!-- sqlserver_cs -->
<g id="node18" class="node"><title>sqlserver_cs</title>
<ellipse fill="#ff7256" stroke="#ff7256" cx="-455.237" cy="-1040.63" rx="98.0844" ry="26.3051"/>
<ellipse fill="none" stroke="#ff7256" cx="-455.237" cy="-1040.63" rx="102.076" ry="30.3268"/>
<text text-anchor="middle" x="-455.237" y="-1034.33" font-family="Times New Roman,serif" font-size="26.00">SQL Server</text>
</g>
<!-- sqlserver_ds -->
<g id="node19" class="node"><title>sqlserver_ds</title>
<ellipse fill="#ff7256" stroke="#ff7256" cx="678.562" cy="252.535" rx="98.0844" ry="26.3051"/>
<ellipse fill="none" stroke="#ff7256" cx="678.562" cy="252.535" rx="102.076" ry="30.3268"/>
<text text-anchor="middle" x="678.562" y="258.835" font-family="Times New Roman,serif" font-size="26.00">SQL Server</text>
</g>
<!-- mongodb_ds -->
<g id="node20" class="node"><title>mongodb_ds</title>
<ellipse fill="#bcee68" stroke="#bcee68" cx="588.959" cy="933.632" rx="90.5193" ry="26.3269"/>
<text text-anchor="middle" x="588.959" y="939.932" font-family="Times New Roman,serif" font-size="26.00">MongoDB</text>
</g>
<!-- couchdb_ds -->
<g id="node21" class="node"><title>couchdb_ds</title>
<ellipse fill="#bcee68" stroke="#bcee68" cx="911.98" cy="372.883" rx="85.6199" ry="26.3269"/>
<text text-anchor="middle" x="911.98" y="379.183" font-family="Times New Roman,serif" font-size="26.00">CouchDB</text>
</g>
<!-- mariadb_rs -->
<g id="node22" class="node"><title>mariadb_rs</title>
<ellipse fill="#bcee68" stroke="#bcee68" cx="-786.193" cy="-259.837" rx="82.0476" ry="26.3051"/>
<ellipse fill="none" stroke="#bcee68" cx="-786.193" cy="-259.837" rx="86.0488" ry="30.3268"/>
<text text-anchor="middle" x="-786.193" y="-253.537" font-family="Times New Roman,serif" font-size="26.00">MariaDB</text>
</g>
<!-- mariadb_cs -->
<g id="node23" class="node"><title>mariadb_cs</title>
<ellipse fill="#bcee68" stroke="#bcee68" cx="-628.197" cy="-834.516" rx="82.0476" ry="26.3051"/>
<ellipse fill="none" stroke="#bcee68" cx="-628.197" cy="-834.516" rx="86.0488" ry="30.3268"/>
<text text-anchor="middle" x="-628.197" y="-828.216" font-family="Times New Roman,serif" font-size="26.00">MariaDB</text>
</g>
<!-- mariadb_ds -->
<g id="node24" class="node"><title>mariadb_ds</title>
<ellipse fill="#bcee68" stroke="#bcee68" cx="375.963" cy="1024.08" rx="82.0476" ry="26.3051"/>
<ellipse fill="none" stroke="#bcee68" cx="375.963" cy="1024.08" rx="86.0488" ry="30.3268"/>
<text text-anchor="middle" x="375.963" y="1030.38" font-family="Times New Roman,serif" font-size="26.00">MariaDB</text>
</g>
<!-- hazelcast_kv -->
<g id="node25" class="node"><title>hazelcast_kv</title>
<polygon fill="#bcee68" stroke="#bcee68" stroke-dasharray="5,2" points="1086.15,-500.295 968.148,-500.295 968.148,-463.295 1086.15,-463.295 1086.15,-500.295"/>
<text text-anchor="middle" x="1027.15" y="-475.495" font-family="Times New Roman,serif" font-size="26.00">Hazelcast</text>
</g>
<!-- riak_kv -->
<g id="node26" class="node"><title>riak_kv</title>
<polygon fill="#bcee68" stroke="#bcee68" points="722.817,-923.198 656.817,-923.198 656.817,-886.198 722.817,-886.198 722.817,-923.198"/>
<text text-anchor="middle" x="689.817" y="-898.398" font-family="Times New Roman,serif" font-size="26.00">Riak</text>
</g>
<!-- dbms_products -->
<g id="node27" class="node"><title>dbms_products</title>
<polygon fill="#1874cd" stroke="#1874cd" points="35.0321,1.11749 39.5418,0.885445 44.0049,0.538178 48.4032,0.0766374 52.7188,-0.497912 56.9344,-1.1839 61.0333,-1.97943 64.9998,-2.88234 68.8185,-3.89015 72.4755,-5.00009 75.9574,-6.20913 79.2522,-7.51395 82.349,-8.91097 85.2378,-10.3964 87.9102,-11.9661 90.3588,-13.6158 92.5776,-15.3409 94.5617,-17.1369 96.3077,-18.9986 97.8135,-20.9211 99.0779,-22.899 100.101,-24.927 100.885,-26.9994 101.432,-29.1107 101.745,-31.2549 101.829,-33.4263 101.69,-35.6189 101.334,-37.8266 100.768,-40.0434 100,-42.2633 99.0385,-44.4802 97.8923,-46.6879 96.5708,-48.8805 95.0835,-51.0518 93.4403,-53.1961 91.6512,-55.3073 89.7261,-57.3798 87.6751,-59.4077 85.508,-61.3857 83.2344,-63.3082 80.8637,-65.1699 78.4049,-66.9658 75.8669,-68.691 73.2577,-70.3407 70.5853,-71.9104 67.857,-73.3958 65.0796,-74.7928 62.2594,-76.0976 59.4021,-77.3067 56.513,-78.4166 53.597,-79.4244 50.6582,-80.3273 47.7006,-81.1229 44.7275,-81.8089 41.742,-82.3834 38.7467,-82.845 35.7443,-83.1922 32.7368,-83.4243 29.7263,-83.5404 26.7149,-83.5404 23.7045,-83.4243 20.697,-83.1922 17.6945,-82.845 14.6993,-82.3834 11.7137,-81.8089 8.74063,-81.1229 5.78299,-80.3273 2.84423,-79.4244 -0.0718111,-78.4166 -2.96085,-77.3067 -5.81813,-76.0976 -8.63837,-74.7928 -11.4158,-73.3958 -14.1441,-71.9104 -16.8165,-70.3407 -19.4256,-68.691 -21.9637,-66.9658 -24.4224,-65.1699 -26.7931,-63.3082 -29.0667,-61.3857 -31.2339,-59.4077 -33.2849,-57.3798 -35.21,-55.3073 -36.9991,-53.1961 -38.6423,-51.0518 -40.1296,-48.8805 -41.4511,-46.6879 -42.5973,-44.4802 -43.5588,-42.2633 -44.3267,-40.0434 -44.8926,-37.8266 -45.2486,-35.6189 -45.3877,-33.4263 -45.3035,-31.2549 -44.9904,-29.1107 -44.4437,-26.9994 -43.66,-24.927 -42.6366,-22.899 -41.3722,-20.9211 -39.8665,-18.9986 -38.1205,-17.1369 -36.1364,-15.3409 -33.9176,-13.6158 -31.469,-11.9661 -28.7966,-10.3964 -25.9078,-8.91097 -22.811,-7.51395 -19.5162,-6.20913 -16.0342,-5.00009 -12.3773,-3.89015 -8.55853,-2.88234 -4.59211,-1.97943 -0.493141,-1.1839 3.72246,-0.497912 8.03803,0.0766374 12.4363,0.538178 16.8994,0.885445 21.4092,1.11749 25.947,1.23367 30.4942,1.23367 35.0321,1.11749"/>
<polygon fill="none" stroke="#1874cd" points="35.1855,5.10979 39.7988,4.87241 44.3675,4.51693 48.8742,4.04402 53.3018,3.45454 57.6342,2.74957 61.8554,1.93029 65.9507,0.998044 69.906,-0.0457995 73.7083,-1.19984 77.3454,-2.46276 80.8063,-3.83334 84.0809,-5.3106 87.1601,-6.89385 90.0353,-8.58272 92.6988,-10.3772 95.1425,-12.2773 97.3584,-14.283 99.3377,-16.3935 101.071,-18.6064 102.548,-20.9163 103.758,-23.3144 104.693,-25.7873 105.348,-28.3181 105.723,-30.8874 105.824,-33.4755 105.659,-36.065 105.244,-38.6414 104.592,-41.1938 103.72,-43.7148 102.643,-46.1992 101.374,-48.6433 99.9268,-51.0441 98.3137,-53.3992 96.546,-55.7059 94.6346,-57.9614 92.5899,-60.1627 90.4218,-62.3064 88.1399,-64.3891 85.7534,-66.407 83.2712,-68.3563 80.7017,-70.2331 78.0531,-72.0335 75.3328,-73.7534 72.5482,-75.389 69.706,-76.9365 66.8123,-78.3919 63.8731,-79.7518 60.8937,-81.0125 57.879,-82.1708 54.8335,-83.2233 51.7613,-84.1672 48.6664,-84.9997 45.5523,-85.7182 42.4222,-86.3206 39.2793,-86.8048 36.1266,-87.1695 32.967,-87.4133 29.8032,-87.5354 26.638,-87.5354 23.4743,-87.4133 20.3146,-87.1695 17.1619,-86.8048 14.0191,-86.3206 10.889,-85.7182 7.77481,-84.9997 4.67989,-84.1672 1.60776,-83.2233 -1.43774,-82.1708 -4.45247,-81.0125 -7.43189,-79.7518 -10.3711,-78.3919 -13.2647,-76.9365 -16.107,-75.389 -18.8916,-73.7534 -21.6118,-72.0335 -24.2605,-70.2331 -26.83,-68.3563 -29.3122,-66.407 -31.6987,-64.3891 -33.9806,-62.3064 -36.1487,-60.1627 -38.1934,-57.9614 -40.1048,-55.7059 -41.8724,-53.3992 -43.4855,-51.0441 -44.9326,-48.6433 -46.2015,-46.1992 -47.279,-43.7148 -48.1511,-41.1938 -48.8027,-38.6414 -49.2182,-36.065 -49.3825,-33.4755 -49.2821,-30.8874 -48.9069,-28.3181 -48.2516,-25.7873 -47.3164,-23.3144 -46.1063,-20.9163 -44.6296,-18.6064 -42.8965,-16.3935 -40.9172,-14.283 -38.7013,-12.2773 -36.2575,-10.3772 -33.5941,-8.58272 -30.7188,-6.89385 -27.6397,-5.3106 -24.365,-3.83334 -20.9041,-2.46276 -17.267,-1.19984 -13.4648,-0.0457995 -9.50949,0.998044 -5.41419,1.93029 -1.19292,2.74957 3.1394,3.45454 7.56707,4.04402 12.0737,4.51693 16.6424,4.87241 21.2558,5.10979 25.896,5.22859 30.5452,5.22859 35.1855,5.10979"/>
<text text-anchor="middle" x="28.2206" y="-47.9534" font-family="Times New Roman,serif" font-size="24.00" fill="azure">DBMS </text>
<text text-anchor="middle" x="28.2206" y="-21.9534" font-family="Times New Roman,serif" font-size="24.00" fill="azure">products</text>
</g>
<!-- row_store -->
<g id="node28" class="node"><title>row_store</title>
<ellipse fill="#cd1076" stroke="#cd1076" cx="-571.716" cy="164.465" rx="53.9813" ry="53.9813"/>
<polyline fill="none" stroke="#cd1076" points="-536.172,124.16 -607.259,124.16 "/>
<polyline fill="none" stroke="#cd1076" points="-536.172,204.77 -607.259,204.77 "/>
<text text-anchor="middle" x="-571.716" y="157.665" font-family="Times New Roman,serif" font-size="24.00" fill="azure">Row </text>
<text text-anchor="middle" x="-571.716" y="183.665" font-family="Times New Roman,serif" font-size="24.00" fill="azure">Stores</text>
</g>
<!-- dbms_products&#45;&gt;row_store -->
<g id="edge1" class="edge"><title>dbms_products&#45;&gt;row_store</title>
<path fill="none" stroke="darkorchid" stroke-dasharray="5,2" d="M-41.4946,-14.5161C-340.659,99.7437 -388.236,116.92 -509.577,148.522"/>
<polygon fill="darkorchid" stroke="darkorchid" points="-519.604,151.124 -508.794,152.968 -514.764,149.868 -509.925,148.612 -509.925,148.612 -509.925,148.612 -514.764,149.868 -511.055,144.256 -519.604,151.124 -519.604,151.124"/>
</g>
<!-- column_store -->
<g id="node29" class="node"><title>column_store</title>
<ellipse fill="#cd1076" stroke="#cd1076" cx="-153.19" cy="-593.224" rx="82.0488" ry="82.0488"/>
<polyline fill="none" stroke="#cd1076" points="-98.9392,-654.742 -207.441,-654.742 "/>
<polyline fill="none" stroke="#cd1076" points="-98.9392,-531.706 -207.441,-531.706 "/>
<text text-anchor="middle" x="-153.19" y="-600.024" font-family="Times New Roman,serif" font-size="24.00" fill="azure">Columnar </text>
<text text-anchor="middle" x="-153.19" y="-574.024" font-family="Times New Roman,serif" font-size="24.00" fill="azure">Stores</text>
</g>
<!-- dbms_products&#45;&gt;column_store -->
<g id="edge2" class="edge"><title>dbms_products&#45;&gt;column_store</title>
<path fill="none" stroke="darkorchid" stroke-dasharray="5,2" d="M16.0444,-86.8561C-56.4009,-358.666 -73.7895,-420.816 -113.789,-509.665"/>
<polygon fill="darkorchid" stroke="darkorchid" points="-117.993,-518.923 -117.955,-507.957 -115.925,-514.371 -113.858,-509.818 -113.858,-509.818 -113.858,-509.818 -115.925,-514.371 -109.761,-511.679 -117.993,-518.923 -117.993,-518.923"/>
</g>
<!-- key_value -->
<g id="node30" class="node"><title>key_value</title>
<ellipse fill="#cd1076" stroke="#cd1076" cx="485.021" cy="-392.795" rx="88.2768" ry="88.2768"/>
<polyline fill="none" stroke="#cd1076" points="543.482,-459.086 426.561,-459.086 "/>
<polyline fill="none" stroke="#cd1076" points="543.482,-326.504 426.561,-326.504 "/>
<text text-anchor="middle" x="485.021" y="-399.595" font-family="Times New Roman,serif" font-size="24.00" fill="azure">Key&#45;Value </text>
<text text-anchor="middle" x="485.021" y="-373.595" font-family="Times New Roman,serif" font-size="24.00" fill="azure">Stores</text>
</g>
<!-- dbms_products&#45;&gt;key_value -->
<g id="edge3" class="edge"><title>dbms_products&#45;&gt;key_value</title>
<path fill="none" stroke="darkorchid" stroke-dasharray="5,2" d="M74.9736,-74.1772C289.594,-225.809 344.644,-265.494 412.005,-325.546"/>
<polygon fill="darkorchid" stroke="darkorchid" points="419.858,-332.587 409.408,-329.262 416.135,-329.249 412.412,-325.911 412.412,-325.911 412.412,-325.911 416.135,-329.249 415.417,-322.561 419.858,-332.587 419.858,-332.587"/>
</g>
<!-- doc_store -->
<g id="node31" class="node"><title>doc_store</title>
<ellipse fill="#cd1076" stroke="#cd1076" cx="379.513" cy="468.99" rx="84.2917" ry="84.2917"/>
<polyline fill="none" stroke="#cd1076" points="435.167,405.881 323.859,405.881 "/>
<polyline fill="none" stroke="#cd1076" points="435.167,532.1 323.859,532.1 "/>
<text text-anchor="middle" x="379.513" y="462.19" font-family="Times New Roman,serif" font-size="24.00" fill="azure">Document </text>
<text text-anchor="middle" x="379.513" y="488.19" font-family="Times New Roman,serif" font-size="24.00" fill="azure">Stores</text>
</g>
<!-- dbms_products&#45;&gt;doc_store -->
<g id="edge4" class="edge"><title>dbms_products&#45;&gt;doc_store</title>
<path fill="none" stroke="darkorchid" stroke-dasharray="5,2" d="M60.3322,2.31841C238.76,243.904 278.353,298.412 331.758,387.517"/>
<polygon fill="darkorchid" stroke="darkorchid" points="336.974,396.256 335.713,385.363 334.412,391.963 331.849,387.669 331.849,387.669 331.849,387.669 334.412,391.963 327.985,389.976 336.974,396.256 336.974,396.256"/>
</g>
<!-- row_store&#45;&gt;ignite_rs -->
<g id="edge5" class="edge"><title>row_store&#45;&gt;ignite_rs</title>
<path fill="none" stroke="darkorchid" stroke-dasharray="5,2" d="M-624.748,175.071C-874.4,224.96 -922.243,233.679 -1016.32,238.947"/>
<polygon fill="darkorchid" stroke="darkorchid" points="-1026.5,239.495 -1016.27,243.451 -1021.5,239.226 -1016.51,238.957 -1016.51,238.957 -1016.51,238.957 -1021.5,239.226 -1016.75,234.464 -1026.5,239.495 -1026.5,239.495"/>
</g>
<!-- row_store&#45;&gt;timesten_rs -->
<g id="edge6" class="edge"><title>row_store&#45;&gt;timesten_rs</title>
<path fill="none" stroke="darkorchid" stroke-dasharray="5,2" d="M-619.393,138.882C-886.482,-4.63578 -907.587,-21.5542 -990.825,-170.943"/>
<polygon fill="darkorchid" stroke="darkorchid" points="-995.875,-180.03 -994.951,-169.103 -993.446,-175.66 -991.017,-171.289 -991.017,-171.289 -991.017,-171.289 -993.446,-175.66 -987.084,-173.475 -995.875,-180.03 -995.875,-180.03"/>
</g>
<!-- row_store&#45;&gt;hana_rs -->
<g id="edge7" class="edge"><title>row_store&#45;&gt;hana_rs</title>
<path fill="none" stroke="darkorchid" stroke-dasharray="5,2" d="M-586.094,112.427C-608.017,28.4907 -603.343,3.5925 -554.571,-94.6608"/>
<polygon fill="darkorchid" stroke="darkorchid" points="-550.034,-103.761 -558.523,-96.8194 -552.265,-99.2863 -554.496,-94.8116 -554.496,-94.8116 -554.496,-94.8116 -552.265,-99.2863 -550.468,-92.8038 -550.034,-103.761 -550.034,-103.761"/>
</g>
<!-- row_store&#45;&gt;voltdb_rs -->
<g id="edge8" class="edge"><title>row_store&#45;&gt;voltdb_rs</title>
<path fill="none" stroke="darkorchid" stroke-dasharray="5,2" d="M-572.599,218.482C-574.949,390.005 -567.898,413.427 -484.895,513.355"/>
<polygon fill="darkorchid" stroke="darkorchid" points="-478.252,521.324 -481.198,510.762 -481.453,517.484 -484.655,513.643 -484.655,513.643 -484.655,513.643 -481.453,517.484 -488.111,516.524 -478.252,521.324 -478.252,521.324"/>
</g>
<!-- row_store&#45;&gt;postgres_rs -->
<g id="edge9" class="edge"><title>row_store&#45;&gt;postgres_rs</title>
<path fill="none" stroke="darkorchid" stroke-dasharray="5,2" d="M-617.515,193.284C-864.427,348.689 -900.348,372.275 -987.05,444.566"/>
<polygon fill="darkorchid" stroke="darkorchid" points="-994.767,451.016 -984.208,448.056 -990.931,447.809 -987.094,444.603 -987.094,444.603 -987.094,444.603 -990.931,447.809 -989.98,441.15 -994.767,451.016 -994.767,451.016"/>
</g>
<!-- row_store&#45;&gt;mysql_rs -->
<g id="edge10" class="edge"><title>row_store&#45;&gt;mysql_rs</title>
<path fill="none" stroke="darkorchid" stroke-dasharray="5,2" d="M-591.42,214.908C-694.189,478.438 -704.857,516.91 -682.552,655.633"/>
<polygon fill="darkorchid" stroke="darkorchid" points="-680.89,665.799 -678.063,655.204 -681.697,660.864 -682.504,655.93 -682.504,655.93 -682.504,655.93 -681.697,660.864 -686.945,656.656 -680.89,665.799 -680.89,665.799"/>
</g>
<!-- row_store&#45;&gt;oracle_rs -->
<g id="edge11" class="edge"><title>row_store&#45;&gt;oracle_rs</title>
<path fill="none" stroke="darkorchid" stroke-dasharray="5,2" d="M-624.992,156.56C-894.862,116.409 -934.337,107.922 -1036.23,47.9178"/>
<polygon fill="darkorchid" stroke="darkorchid" points="-1044.97,42.7332 -1038.67,51.703 -1040.67,45.2825 -1036.37,47.8319 -1036.37,47.8319 -1036.37,47.8319 -1040.67,45.2825 -1034.08,43.9607 -1044.97,42.7332 -1044.97,42.7332"/>
</g>
<!-- row_store&#45;&gt;sqlserver_rs -->
<g id="edge12" class="edge"><title>row_store&#45;&gt;sqlserver_rs</title>
<path fill="none" stroke="darkorchid" stroke-dasharray="5,2" d="M-606.27,206.089C-753.111,383.175 -771.141,409.042 -803.021,508.114"/>
<polygon fill="darkorchid" stroke="darkorchid" points="-806.154,517.938 -798.828,509.778 -804.635,513.174 -803.116,508.41 -803.116,508.41 -803.116,508.41 -804.635,513.174 -807.403,507.043 -806.154,517.938 -806.154,517.938"/>
</g>
<!-- row_store&#45;&gt;mariadb_rs -->
<g id="edge13" class="edge"><title>row_store&#45;&gt;mariadb_rs</title>
<path fill="none" stroke="darkorchid" stroke-dasharray="5,2" d="M-608.89,125.624C-762.086,-34.9493 -773.854,-57.8261 -783.817,-219.227"/>
<polygon fill="darkorchid" stroke="darkorchid" points="-784.442,-229.55 -788.33,-219.296 -784.14,-224.559 -783.838,-219.568 -783.838,-219.568 -783.838,-219.568 -784.14,-224.559 -779.346,-219.84 -784.442,-229.55 -784.442,-229.55"/>
</g>
<!-- column_store&#45;&gt;hana_cs -->
<g id="edge14" class="edge"><title>column_store&#45;&gt;hana_cs</title>
<path fill="none" stroke="darkorchid" stroke-dasharray="5,2" d="M-159.96,-675.346C-181.096,-932.498 -183.32,-971.905 -180.689,-1079.83"/>
<polygon fill="darkorchid" stroke="darkorchid" points="-180.429,-1090.15 -185.179,-1080.27 -180.555,-1085.15 -180.681,-1080.15 -180.681,-1080.15 -180.681,-1080.15 -180.555,-1085.15 -176.182,-1080.04 -180.429,-1090.15 -180.429,-1090.15"/>
</g>
<!-- column_store&#45;&gt;oracle_cs -->
<g id="edge15" class="edge"><title>column_store&#45;&gt;oracle_cs</title>
<path fill="none" stroke="darkorchid" stroke-dasharray="5,2" d="M-125.361,-670.473C-44.6113,-893.774 -28.1305,-926.782 50.2662,-1010.38"/>
<polygon fill="darkorchid" stroke="darkorchid" points="57.2819,-1017.82 47.1484,-1013.63 53.8526,-1014.18 50.4232,-1010.54 50.4232,-1010.54 50.4232,-1010.54 53.8526,-1014.18 53.6981,-1007.46 57.2819,-1017.82 57.2819,-1017.82"/>
</g>
<!-- column_store&#45;&gt;sqlserver_cs -->
<g id="edge16" class="edge"><title>column_store&#45;&gt;sqlserver_cs</title>
<path fill="none" stroke="darkorchid" stroke-dasharray="5,2" d="M-194.29,-664.548C-323.61,-888.697 -345.631,-922.542 -420.941,-1003.96"/>
<polygon fill="darkorchid" stroke="darkorchid" points="-427.909,-1011.47 -424.405,-1001.07 -424.508,-1007.8 -421.106,-1004.14 -421.106,-1004.14 -421.106,-1004.14 -424.508,-1007.8 -417.808,-1007.2 -427.909,-1011.47 -427.909,-1011.47"/>
</g>
<!-- column_store&#45;&gt;mariadb_cs -->
<g id="edge17" class="edge"><title>column_store&#45;&gt;mariadb_cs</title>
<path fill="none" stroke="darkorchid" stroke-dasharray="5,2" d="M-219.339,-642.278C-397.081,-773.698 -442.519,-801.964 -539.563,-820.5"/>
<polygon fill="darkorchid" stroke="darkorchid" points="-549.436,-822.323 -540.419,-816.082 -544.519,-821.415 -539.602,-820.507 -539.602,-820.507 -539.602,-820.507 -544.519,-821.415 -538.785,-824.932 -549.436,-822.323 -549.436,-822.323"/>
</g>
<!-- key_value&#45;&gt;ignite_kv -->
<g id="edge18" class="edge"><title>key_value&#45;&gt;ignite_kv</title>
<path fill="none" stroke="darkorchid" stroke-dasharray="5,2" d="M495.128,-480.662C516.655,-673.637 512.719,-708.389 458.13,-813.426"/>
<polygon fill="darkorchid" stroke="darkorchid" points="453.405,-822.456 454.054,-811.51 455.723,-818.026 458.041,-813.596 458.041,-813.596 458.041,-813.596 455.723,-818.026 462.028,-815.682 453.405,-822.456 453.405,-822.456"/>
</g>
<!-- key_value&#45;&gt;memcached_kv -->
<g id="edge19" class="edge"><title>key_value&#45;&gt;memcached_kv</title>
<path fill="none" stroke="darkorchid" stroke-dasharray="5,2" d="M555.13,-446.628C748.2,-594.932 777.92,-618.547 856.171,-686.66"/>
<polygon fill="darkorchid" stroke="darkorchid" points="863.902,-693.396 853.407,-690.22 860.133,-690.111 856.363,-686.827 856.363,-686.827 856.363,-686.827 860.133,-690.111 859.319,-683.434 863.902,-693.396 863.902,-693.396"/>
</g>
<!-- key_value&#45;&gt;redis_kv -->
<g id="edge20" class="edge"><title>key_value&#45;&gt;redis_kv</title>
<path fill="none" stroke="darkorchid" stroke-dasharray="5,2" d="M572.71,-381.157C791.341,-351.641 821.804,-341.01 920.881,-266.419"/>
<polygon fill="darkorchid" stroke="darkorchid" points="929.087,-260.217 923.823,-269.837 925.098,-263.232 921.109,-266.247 921.109,-266.247 921.109,-266.247 925.098,-263.232 918.396,-262.657 929.087,-260.217 929.087,-260.217"/>
</g>
<!-- key_value&#45;&gt;hazelcast_kv -->
<g id="edge21" class="edge"><title>key_value&#45;&gt;hazelcast_kv</title>
<path fill="none" stroke="darkorchid" stroke-dasharray="5,2" d="M571.172,-414.304C808.194,-473.304 857.302,-483.049 957.818,-482.828"/>
<polygon fill="darkorchid" stroke="darkorchid" points="968.04,-482.774 958.063,-487.327 963.04,-482.8 958.04,-482.827 958.04,-482.827 958.04,-482.827 963.04,-482.8 958.016,-478.327 968.04,-482.774 968.04,-482.774"/>
</g>
<!-- key_value&#45;&gt;riak_kv -->
<g id="edge22" class="edge"><title>key_value&#45;&gt;riak_kv</title>
<path fill="none" stroke="darkorchid" stroke-dasharray="5,2" d="M527.59,-470.606C658.571,-710.62 668.199,-737.699 686.141,-875.951"/>
<polygon fill="darkorchid" stroke="darkorchid" points="687.449,-886.101 681.708,-876.759 686.81,-881.142 686.171,-876.183 686.171,-876.183 686.171,-876.183 686.81,-881.142 690.634,-875.608 687.449,-886.101 687.449,-886.101"/>
</g>
<!-- doc_store&#45;&gt;hana_ds -->
<g id="edge23" class="edge"><title>doc_store&#45;&gt;hana_ds</title>
<path fill="none" stroke="darkorchid" stroke-dasharray="5,2" d="M457.323,501.469C680.974,594.533 721.828,607.265 832.899,608.478"/>
<polygon fill="darkorchid" stroke="darkorchid" points="843.155,608.558 833.191,603.98 838.155,608.519 833.155,608.48 833.155,608.48 833.155,608.48 838.155,608.519 833.12,612.98 843.155,608.558 843.155,608.558"/>
</g>
<!-- doc_store&#45;&gt;postgres_ds -->
<g id="edge24" class="edge"><title>doc_store&#45;&gt;postgres_ds</title>
<path fill="none" stroke="darkorchid" stroke-dasharray="5,2" d="M441.313,526.159C623.925,694.978 658.386,725.241 740.073,783.538"/>
<polygon fill="darkorchid" stroke="darkorchid" points="748.664,789.65 743.125,780.187 744.59,786.752 740.516,783.853 740.516,783.853 740.516,783.853 744.59,786.752 737.907,787.52 748.664,789.65 748.664,789.65"/>
</g>
<!-- doc_store&#45;&gt;mysql_ds -->
<g id="edge25" class="edge"><title>doc_store&#45;&gt;mysql_ds</title>
<path fill="none" stroke="darkorchid" stroke-dasharray="5,2" d="M360.123,551.016C304.889,782.633 287.576,825.889 193.527,915.036"/>
<polygon fill="darkorchid" stroke="darkorchid" points="186.018,922.101 196.385,918.526 189.66,918.675 193.301,915.248 193.301,915.248 193.301,915.248 189.66,918.675 190.218,911.971 186.018,922.101 186.018,922.101"/>
</g>
<!-- doc_store&#45;&gt;oracle_ds -->
<g id="edge26" class="edge"><title>doc_store&#45;&gt;oracle_ds</title>
<path fill="none" stroke="darkorchid" stroke-dasharray="5,2" d="M339.424,543.17C283.831,643.36 260.375,665.439 175.3,698.886"/>
<polygon fill="darkorchid" stroke="darkorchid" points="165.751,702.591 176.701,703.169 170.412,700.782 175.073,698.974 175.073,698.974 175.073,698.974 170.412,700.782 173.446,694.778 165.751,702.591 165.751,702.591"/>
</g>
<!-- doc_store&#45;&gt;sqlserver_ds -->
<g id="edge27" class="edge"><title>doc_store&#45;&gt;sqlserver_ds</title>
<path fill="none" stroke="darkorchid" stroke-dasharray="5,2" d="M460.132,443.771C576.175,405.963 597.918,386.485 655.572,291.093"/>
<polygon fill="darkorchid" stroke="darkorchid" points="660.894,282.246 651.883,288.495 658.316,286.53 655.739,290.815 655.739,290.815 655.739,290.815 658.316,286.53 659.595,293.134 660.894,282.246 660.894,282.246"/>
</g>
<!-- doc_store&#45;&gt;mongodb_ds -->
<g id="edge28" class="edge"><title>doc_store&#45;&gt;mongodb_ds</title>
<path fill="none" stroke="darkorchid" stroke-dasharray="5,2" d="M418.059,544.266C530.172,763.442 543.949,793.972 577.507,897.886"/>
<polygon fill="darkorchid" stroke="darkorchid" points="580.602,907.502 581.821,896.604 579.07,902.743 577.538,897.983 577.538,897.983 577.538,897.983 579.07,902.743 573.254,899.362 580.602,907.502 580.602,907.502"/>
</g>
<!-- doc_store&#45;&gt;couchdb_ds -->
<g id="edge29" class="edge"><title>doc_store&#45;&gt;couchdb_ds</title>
<path fill="none" stroke="darkorchid" stroke-dasharray="5,2" d="M463.893,472.281C706.965,481.263 743.824,475.244 865.096,401.766"/>
<polygon fill="darkorchid" stroke="darkorchid" points="873.978,396.359 863.096,397.716 869.707,398.959 865.437,401.559 865.437,401.559 865.437,401.559 869.707,398.959 867.777,405.403 873.978,396.359 873.978,396.359"/>
</g>
<!-- doc_store&#45;&gt;mariadb_ds -->
<g id="edge30" class="edge"><title>doc_store&#45;&gt;mariadb_ds</title>
<path fill="none" stroke="darkorchid" stroke-dasharray="5,2" d="M390.279,552.462C424.618,820.879 424.408,855.275 387.547,984.206"/>
<polygon fill="darkorchid" stroke="darkorchid" points="384.711,994.068 391.799,985.701 386.092,989.263 387.474,984.457 387.474,984.457 387.474,984.457 386.092,989.263 383.15,983.214 384.711,994.068 384.711,994.068"/>
</g>
</g>
</svg>
