<?xml version="1.0" encoding="UTF-8" standalone="no"?>
<!DOCTYPE svg PUBLIC "-//W3C//DTD SVG 1.1//EN"
 "http://www.w3.org/Graphics/SVG/1.1/DTD/svg11.dtd">
<!-- Generated by graphviz version 2.38.0 (20140413.2041)
 -->
<!-- Title: g1 Pages: 1 -->
<svg width="766pt" height="168pt"
 viewBox="0.00 0.00 766.00 168.00" xmlns="http://www.w3.org/2000/svg" xmlns:xlink="http://www.w3.org/1999/xlink">
<g id="graph0" class="graph" transform="scale(1 1) rotate(0) translate(4 164)">
<title>g1</title>
<polygon fill="white" stroke="none" points="-4,4 -4,-164 762,-164 762,4 -4,4"/>
<!-- n1 -->
<g id="node1" class="node"><title>n1</title>
<polygon fill="#a2cd5a" stroke="none" points="0,-120 0,-160 758,-160 758,-120 0,-120"/>
<polygon fill="none" stroke="black" points="0,-120 0,-160 758,-160 758,-120 0,-120"/>
<text text-anchor="start" x="295" y="-143.8" font-family="Times New Roman,serif" font-size="14.00"> Management and Monitoring </text>
<text text-anchor="start" x="350" y="-128.8" font-family="Times New Roman,serif" font-size="14.00"> (Ambari) </text>
<polygon fill="#fff8dc" stroke="none" points="0,-0 0,-120 92,-120 92,-0 0,-0"/>
<polygon fill="none" stroke="black" points="0,-0 0,-120 92,-120 92,-0 0,-0"/>
<text text-anchor="start" x="5" y="-63.8" font-family="Times New Roman,serif" font-size="14.00"> Coordination </text>
<text text-anchor="start" x="10.5" y="-48.8" font-family="Times New Roman,serif" font-size="14.00"> (Zookeper) </text>
<polygon fill="#fff8dc" stroke="none" points="92,-0 92,-120 256,-120 256,-0 92,-0"/>
<polygon fill="none" stroke="black" points="92,-0 92,-120 256,-120 256,-0 92,-0"/>
<text text-anchor="start" x="97" y="-63.8" font-family="Times New Roman,serif" font-size="14.00"> Workflow and Scheduling </text>
<text text-anchor="start" x="151" y="-48.8" font-family="Times New Roman,serif" font-size="14.00"> (Oozie)</text>
<polygon fill="#ffb90f" stroke="none" points="256,-80 256,-120 324,-120 324,-80 256,-80"/>
<polygon fill="none" stroke="black" points="256,-80 256,-120 324,-120 324,-80 256,-80"/>
<text text-anchor="start" x="261" y="-103.8" font-family="Times New Roman,serif" font-size="14.00"> Scripting </text>
<text text-anchor="start" x="272.5" y="-88.8" font-family="Times New Roman,serif" font-size="14.00"> (Pig) </text>
<polygon fill="#ffb90f" stroke="none" points="324,-80 324,-120 441,-120 441,-80 324,-80"/>
<polygon fill="none" stroke="black" points="324,-80 324,-120 441,-120 441,-80 324,-80"/>
<text text-anchor="start" x="329" y="-103.8" font-family="Times New Roman,serif" font-size="14.00"> Machine Learning </text>
<text text-anchor="start" x="352.5" y="-88.8" font-family="Times New Roman,serif" font-size="14.00"> (Mahout) </text>
<polygon fill="#ffb90f" stroke="none" points="441,-80 441,-120 494,-120 494,-80 441,-80"/>
<polygon fill="none" stroke="black" points="441,-80 441,-120 494,-120 494,-80 441,-80"/>
<text text-anchor="start" x="446" y="-103.8" font-family="Times New Roman,serif" font-size="14.00"> Query </text>
<text text-anchor="start" x="446" y="-88.8" font-family="Times New Roman,serif" font-size="14.00"> (Hive) </text>
<polygon fill="#fff8dc" stroke="none" points="494,-40 494,-120 611,-120 611,-40 494,-40"/>
<polygon fill="none" stroke="black" points="494,-40 494,-120 611,-120 611,-40 494,-40"/>
<text text-anchor="start" x="499" y="-83.8" font-family="Times New Roman,serif" font-size="14.00"> NoSQL Database </text>
<text text-anchor="start" x="521.5" y="-68.8" font-family="Times New Roman,serif" font-size="14.00"> (HBASE) </text>
<polygon fill="#fff8dc" stroke="none" points="611,-0 611,-120 758,-120 758,-0 611,-0"/>
<polygon fill="none" stroke="black" points="611,-0 611,-120 758,-120 758,-0 611,-0"/>
<text text-anchor="start" x="636" y="-63.8" font-family="Times New Roman,serif" font-size="14.00"> Data Integration </text>
<text text-anchor="start" x="616" y="-48.8" font-family="Times New Roman,serif" font-size="14.00"> (Sqoop/REST/ODBC) </text>
<polygon fill="#a2cd5a" stroke="none" points="256,-40 256,-80 494,-80 494,-40 256,-40"/>
<polygon fill="none" stroke="black" points="256,-40 256,-80 494,-80 494,-40 256,-40"/>
<text text-anchor="start" x="307.5" y="-63.8" font-family="Times New Roman,serif" font-size="14.00"> Distributed Processing </text>
<text text-anchor="start" x="332.5" y="-48.8" font-family="Times New Roman,serif" font-size="14.00"> (Map Reduce)</text>
<polygon fill="#a2cd5a" stroke="none" points="256,-0 256,-40 611,-40 611,-0 256,-0"/>
<polygon fill="none" stroke="black" points="256,-0 256,-40 611,-40 611,-0 256,-0"/>
<text text-anchor="start" x="375.5" y="-23.8" font-family="Times New Roman,serif" font-size="14.00"> Distributed Storage </text>
<text text-anchor="start" x="407" y="-8.8" font-family="Times New Roman,serif" font-size="14.00"> (HDFS) </text>
</g>
</g>
</svg>
