<?xml version="1.0" encoding="UTF-8" standalone="no"?>
<!DOCTYPE svg PUBLIC "-//W3C//DTD SVG 1.1//EN"
 "http://www.w3.org/Graphics/SVG/1.1/DTD/svg11.dtd">
<!-- Generated by graphviz version 2.38.0 (20140413.2041)
 -->
<!-- Title: g1 Pages: 1 -->
<svg width="764pt" height="146pt"
 viewBox="0.00 0.00 764.00 146.00" xmlns="http://www.w3.org/2000/svg" xmlns:xlink="http://www.w3.org/1999/xlink">
<g id="graph0" class="graph" transform="scale(1 1) rotate(0) translate(4 142)">
<title>g1</title>
<polygon fill="white" stroke="none" points="-4,4 -4,-142 760,-142 760,4 -4,4"/>
<!-- n1 -->
<g id="node1" class="node"><title>n1</title>
<polygon fill="#fff8dc" stroke="#ee6a50" points="0,-0.5 0,-137.5 756,-137.5 756,-0.5 0,-0.5"/>
<text text-anchor="middle" x="378" y="-122.3" font-family="Times New Roman,serif" font-size="14.00">Management and Monitoring </text>
<text text-anchor="middle" x="378" y="-107.3" font-family="Times New Roman,serif" font-size="14.00"> (Ambari)</text>
<polyline fill="none" stroke="#ee6a50" points="0,-99.5 756,-99.5 "/>
<text text-anchor="middle" x="47" y="-53.8" font-family="Times New Roman,serif" font-size="14.00">Coordination </text>
<text text-anchor="middle" x="47" y="-38.8" font-family="Times New Roman,serif" font-size="14.00">(Zookeper)</text>
<polyline fill="none" stroke="#ee6a50" points="94,-0.5 94,-99.5 "/>
<text text-anchor="middle" x="173" y="-53.8" font-family="Times New Roman,serif" font-size="14.00">Workflow &amp; Scheduling </text>
<text text-anchor="middle" x="173" y="-38.8" font-family="Times New Roman,serif" font-size="14.00">(Oozie)</text>
<polyline fill="none" stroke="#ee6a50" points="252,-0.5 252,-99.5 "/>
<text text-anchor="middle" x="287.5" y="-84.3" font-family="Times New Roman,serif" font-size="14.00">Scripting </text>
<text text-anchor="middle" x="287.5" y="-69.3" font-family="Times New Roman,serif" font-size="14.00"> (Pig)</text>
<polyline fill="none" stroke="#ee6a50" points="323,-61.5 323,-99.5 "/>
<text text-anchor="middle" x="382.5" y="-84.3" font-family="Times New Roman,serif" font-size="14.00">Machine Learning </text>
<text text-anchor="middle" x="382.5" y="-69.3" font-family="Times New Roman,serif" font-size="14.00"> (Mahout)</text>
<polyline fill="none" stroke="#ee6a50" points="442,-61.5 442,-99.5 "/>
<text text-anchor="middle" x="469.5" y="-84.3" font-family="Times New Roman,serif" font-size="14.00">Query </text>
<text text-anchor="middle" x="469.5" y="-69.3" font-family="Times New Roman,serif" font-size="14.00"> (Hive)</text>
<polyline fill="none" stroke="#ee6a50" points="252,-61.5 497,-61.5 "/>
<text text-anchor="middle" x="374.5" y="-46.3" font-family="Times New Roman,serif" font-size="14.00">Distributed Processing (Map Reduce)</text>
<polyline fill="none" stroke="#ee6a50" points="497,-38.5 497,-99.5 "/>
<text text-anchor="middle" x="556.5" y="-72.8" font-family="Times New Roman,serif" font-size="14.00">NoSQL Database </text>
<text text-anchor="middle" x="556.5" y="-57.8" font-family="Times New Roman,serif" font-size="14.00"> (HBase)</text>
<polyline fill="none" stroke="#ee6a50" points="252,-38.5 616,-38.5 "/>
<text text-anchor="middle" x="434" y="-23.3" font-family="Times New Roman,serif" font-size="14.00">Distributed Storage </text>
<text text-anchor="middle" x="434" y="-8.3" font-family="Times New Roman,serif" font-size="14.00"> (HDFS)</text>
<polyline fill="none" stroke="#ee6a50" points="616,-0.5 616,-99.5 "/>
<text text-anchor="middle" x="686" y="-53.8" font-family="Times New Roman,serif" font-size="14.00">Data Integration </text>
<text text-anchor="middle" x="686" y="-38.8" font-family="Times New Roman,serif" font-size="14.00"> (Sqoop\REST\odbc)</text>
</g>
</g>
</svg>
