<?xml version="1.0" encoding="UTF-8" standalone="no"?>
<!DOCTYPE svg PUBLIC "-//W3C//DTD SVG 1.1//EN"
 "http://www.w3.org/Graphics/SVG/1.1/DTD/svg11.dtd">
<!-- Generated by graphviz version 2.38.0 (20140413.2041)
 -->
<!-- Title: g1 Pages: 1 -->
<svg width="685pt" height="852pt"
 viewBox="0.00 0.00 685.00 852.00" xmlns="http://www.w3.org/2000/svg" xmlns:xlink="http://www.w3.org/1999/xlink">
<g id="graph0" class="graph" transform="scale(1 1) rotate(0) translate(4 848)">
<title>g1</title>
<polygon fill="white" stroke="none" points="-4,4 -4,-848 681,-848 681,4 -4,4"/>
<g id="clust1" class="cluster"><title>cluster_inputStreams</title>
</g>
<g id="clust3" class="cluster"><title>cluster_main</title>
<polygon fill="none" stroke="darkslategrey" points="8,-203 8,-639 648,-639 648,-203 8,-203"/>
</g>
<g id="clust4" class="cluster"><title>cluster_consumer1</title>
<polygon fill="none" stroke="darkslategrey" points="16,-211 16,-631 324,-631 324,-211 16,-211"/>
<text text-anchor="middle" x="71" y="-615.8" font-family="Times New Roman,serif" font-size="14.00" fill="#ff7256">Stream Thread 1</text>
</g>
<g id="clust5" class="cluster"><title>cluster_cs1_n1</title>
<polygon fill="gainsboro" stroke="cadetblue" points="24,-284 24,-523 166,-523 166,-284 24,-284"/>
<text text-anchor="middle" x="57" y="-507.8" font-family="Times New Roman,serif" font-size="14.00" fill="#ff7256">Task 1&#45;1</text>
</g>
<g id="clust8" class="cluster"><title>cluster_cs1_n2</title>
<polygon fill="gainsboro" stroke="cadetblue" points="174,-284 174,-523 316,-523 316,-284 174,-284"/>
<text text-anchor="middle" x="282.5" y="-507.8" font-family="Times New Roman,serif" font-size="14.00" fill="#ff7256">Task 1&#45;p</text>
</g>
<g id="clust12" class="cluster"><title>cluster_consumern</title>
<polygon fill="none" stroke="darkslategrey" points="332,-211 332,-631 640,-631 640,-211 332,-211"/>
<text text-anchor="middle" x="585" y="-615.8" font-family="Times New Roman,serif" font-size="14.00" fill="#ff7256">Stream Thread n</text>
</g>
<g id="clust13" class="cluster"><title>cluster_csn_n1</title>
<polygon fill="gainsboro" stroke="cadetblue" points="340,-284 340,-523 482,-523 482,-284 340,-284"/>
<text text-anchor="middle" x="373" y="-507.8" font-family="Times New Roman,serif" font-size="14.00" fill="#ff7256">Task n&#45;1</text>
</g>
<g id="clust16" class="cluster"><title>cluster_csn_n2</title>
<polygon fill="gainsboro" stroke="cadetblue" points="490,-284 490,-523 632,-523 632,-284 490,-284"/>
<text text-anchor="middle" x="598.5" y="-507.8" font-family="Times New Roman,serif" font-size="14.00" fill="#ff7256">Task n&#45;q</text>
</g>
<g id="clust24" class="cluster"><title>cluster_outputStreams</title>
</g>
<!-- is1 -->
<g id="node1" class="node"><title>is1</title>
<polygon fill="#98f5ff" stroke="#7ac5cd" stroke-width="3" points="170,-666.5 170,-804.5 224,-804.5 224,-666.5 170,-666.5"/>
<text text-anchor="middle" x="197" y="-789.3" font-family="Times New Roman,serif" font-size="14.00"> </text>
<polyline fill="none" stroke="#7ac5cd" stroke-width="3" points="170,-781.5 224,-781.5 "/>
<text text-anchor="middle" x="197" y="-766.3" font-family="Times New Roman,serif" font-size="14.00"> </text>
<polyline fill="none" stroke="#7ac5cd" stroke-width="3" points="170,-758.5 224,-758.5 "/>
<text text-anchor="middle" x="197" y="-743.3" font-family="Times New Roman,serif" font-size="14.00"> </text>
<polyline fill="none" stroke="#7ac5cd" stroke-width="3" points="170,-735.5 224,-735.5 "/>
<text text-anchor="middle" x="197" y="-720.3" font-family="Times New Roman,serif" font-size="14.00"> </text>
<polyline fill="none" stroke="#7ac5cd" stroke-width="3" points="170,-712.5 224,-712.5 "/>
<text text-anchor="middle" x="197" y="-697.3" font-family="Times New Roman,serif" font-size="14.00"> </text>
<polyline fill="none" stroke="#7ac5cd" stroke-width="3" points="170,-689.5 224,-689.5 "/>
<text text-anchor="middle" x="197" y="-674.3" font-family="Times New Roman,serif" font-size="14.00"> </text>
</g>
<!-- is2 -->
<g id="node2" class="node"><title>is2</title>
<polygon fill="#98f5ff" stroke="#7ac5cd" stroke-width="3" points="260,-666.5 260,-804.5 314,-804.5 314,-666.5 260,-666.5"/>
<text text-anchor="middle" x="287" y="-789.3" font-family="Times New Roman,serif" font-size="14.00"> </text>
<polyline fill="none" stroke="#7ac5cd" stroke-width="3" points="260,-781.5 314,-781.5 "/>
<text text-anchor="middle" x="287" y="-766.3" font-family="Times New Roman,serif" font-size="14.00"> </text>
<polyline fill="none" stroke="#7ac5cd" stroke-width="3" points="260,-758.5 314,-758.5 "/>
<text text-anchor="middle" x="287" y="-743.3" font-family="Times New Roman,serif" font-size="14.00"> </text>
<polyline fill="none" stroke="#7ac5cd" stroke-width="3" points="260,-735.5 314,-735.5 "/>
<text text-anchor="middle" x="287" y="-720.3" font-family="Times New Roman,serif" font-size="14.00"> </text>
<polyline fill="none" stroke="#7ac5cd" stroke-width="3" points="260,-712.5 314,-712.5 "/>
<text text-anchor="middle" x="287" y="-697.3" font-family="Times New Roman,serif" font-size="14.00"> </text>
<polyline fill="none" stroke="#7ac5cd" stroke-width="3" points="260,-689.5 314,-689.5 "/>
<text text-anchor="middle" x="287" y="-674.3" font-family="Times New Roman,serif" font-size="14.00"> </text>
</g>
<!-- is1&#45;&gt;is2 -->
<!-- cs_1 -->
<g id="node6" class="node"><title>cs_1</title>
<polygon fill="gainsboro" stroke="black" stroke-width="3" points="243.5,-600 152.5,-600 152.5,-564 243.5,-564 243.5,-600"/>
<text text-anchor="start" x="160.5" y="-579.3" font-family="Times New Roman,serif" font-weight="bold" font-size="14.00" fill="#ff7256">Consumer 1</text>
</g>
<!-- is1&#45;&gt;cs_1 -->
<g id="edge41" class="edge"><title>is1&#45;&gt;cs_1</title>
<path fill="none" stroke="#7ac5cd" stroke-width="0.7" stroke-dasharray="5,2" d="M197.45,-666.284C197.611,-641.937 197.779,-616.542 197.886,-600.292"/>
</g>
<!-- is3 -->
<g id="node3" class="node"><title>is3</title>
<polygon fill="#98f5ff" stroke="#7ac5cd" stroke-width="3" points="350,-666.5 350,-804.5 404,-804.5 404,-666.5 350,-666.5"/>
<text text-anchor="middle" x="377" y="-789.3" font-family="Times New Roman,serif" font-size="14.00"> </text>
<polyline fill="none" stroke="#7ac5cd" stroke-width="3" points="350,-781.5 404,-781.5 "/>
<text text-anchor="middle" x="377" y="-766.3" font-family="Times New Roman,serif" font-size="14.00"> </text>
<polyline fill="none" stroke="#7ac5cd" stroke-width="3" points="350,-758.5 404,-758.5 "/>
<text text-anchor="middle" x="377" y="-743.3" font-family="Times New Roman,serif" font-size="14.00"> </text>
<polyline fill="none" stroke="#7ac5cd" stroke-width="3" points="350,-735.5 404,-735.5 "/>
<text text-anchor="middle" x="377" y="-720.3" font-family="Times New Roman,serif" font-size="14.00"> </text>
<polyline fill="none" stroke="#7ac5cd" stroke-width="3" points="350,-712.5 404,-712.5 "/>
<text text-anchor="middle" x="377" y="-697.3" font-family="Times New Roman,serif" font-size="14.00"> </text>
<polyline fill="none" stroke="#7ac5cd" stroke-width="3" points="350,-689.5 404,-689.5 "/>
<text text-anchor="middle" x="377" y="-674.3" font-family="Times New Roman,serif" font-size="14.00"> </text>
</g>
<!-- is2&#45;&gt;is3 -->
<!-- is2&#45;&gt;cs_1 -->
<g id="edge42" class="edge"><title>is2&#45;&gt;cs_1</title>
<path fill="none" stroke="#7ac5cd" stroke-width="0.7" stroke-dasharray="5,2" d="M259.813,-688.222C242.331,-658.462 220.624,-621.511 208.136,-600.254"/>
</g>
<!-- is4 -->
<g id="node4" class="node"><title>is4</title>
<polygon fill="#98f5ff" stroke="#7ac5cd" stroke-width="3" points="440,-666.5 440,-804.5 494,-804.5 494,-666.5 440,-666.5"/>
<text text-anchor="middle" x="467" y="-789.3" font-family="Times New Roman,serif" font-size="14.00"> </text>
<polyline fill="none" stroke="#7ac5cd" stroke-width="3" points="440,-781.5 494,-781.5 "/>
<text text-anchor="middle" x="467" y="-766.3" font-family="Times New Roman,serif" font-size="14.00"> </text>
<polyline fill="none" stroke="#7ac5cd" stroke-width="3" points="440,-758.5 494,-758.5 "/>
<text text-anchor="middle" x="467" y="-743.3" font-family="Times New Roman,serif" font-size="14.00"> </text>
<polyline fill="none" stroke="#7ac5cd" stroke-width="3" points="440,-735.5 494,-735.5 "/>
<text text-anchor="middle" x="467" y="-720.3" font-family="Times New Roman,serif" font-size="14.00"> </text>
<polyline fill="none" stroke="#7ac5cd" stroke-width="3" points="440,-712.5 494,-712.5 "/>
<text text-anchor="middle" x="467" y="-697.3" font-family="Times New Roman,serif" font-size="14.00"> </text>
<polyline fill="none" stroke="#7ac5cd" stroke-width="3" points="440,-689.5 494,-689.5 "/>
<text text-anchor="middle" x="467" y="-674.3" font-family="Times New Roman,serif" font-size="14.00"> </text>
</g>
<!-- is3&#45;&gt;is4 -->
<!-- cs_n -->
<g id="node18" class="node"><title>cs_n</title>
<polygon fill="gainsboro" stroke="black" stroke-width="3" points="509.5,-600 418.5,-600 418.5,-564 509.5,-564 509.5,-600"/>
<text text-anchor="start" x="426.5" y="-579.3" font-family="Times New Roman,serif" font-weight="bold" font-size="14.00" fill="#ff7256">Consumer n</text>
</g>
<!-- is3&#45;&gt;cs_n -->
<g id="edge43" class="edge"><title>is3&#45;&gt;cs_n</title>
<path fill="none" stroke="#7ac5cd" stroke-width="0.7" stroke-dasharray="5,2" d="M404.05,-687.395C421.11,-657.688 442.127,-621.089 454.204,-600.059"/>
</g>
<!-- lbl_txt_is -->
<g id="node5" class="node"><title>lbl_txt_is</title>
<text text-anchor="middle" x="595" y="-731.8" font-family="Times New Roman,serif" font-size="14.00">Input Kafka Streams</text>
</g>
<!-- is4&#45;&gt;lbl_txt_is -->
<!-- is4&#45;&gt;cs_n -->
<g id="edge44" class="edge"><title>is4&#45;&gt;cs_n</title>
<path fill="none" stroke="#7ac5cd" stroke-width="0.7" stroke-dasharray="5,2" d="M465.649,-666.284C465.167,-641.937 464.664,-616.542 464.342,-600.292"/>
</g>
<!-- cs1_n1_1 -->
<g id="node8" class="node"><title>cs1_n1_1</title>
<ellipse fill="none" stroke="cadetblue" stroke-width="3" cx="86" cy="-474" rx="18" ry="18"/>
</g>
<!-- cs_1&#45;&gt;cs1_n1_1 -->
<g id="edge15" class="edge"><title>cs_1&#45;&gt;cs1_n1_1</title>
<path fill="none" stroke="darkslategrey" stroke-dasharray="5,2" d="M165.864,-563.909C148.713,-553.672 128.094,-539.458 113,-523 104.34,-513.558 97.3485,-500.849 92.6512,-490.88"/>
</g>
<!-- cs1_n1_2 -->
<g id="node9" class="node"><title>cs1_n1_2</title>
<ellipse fill="none" stroke="cadetblue" stroke-width="3" cx="140" cy="-474" rx="18" ry="18"/>
</g>
<!-- cs_1&#45;&gt;cs1_n1_2 -->
<g id="edge16" class="edge"><title>cs_1&#45;&gt;cs1_n1_2</title>
<path fill="none" stroke="darkslategrey" stroke-dasharray="5,2" d="M188.681,-563.969C177.538,-543.603 159.053,-509.821 148.354,-490.268"/>
</g>
<!-- cs1_n2_1 -->
<g id="node13" class="node"><title>cs1_n2_1</title>
<ellipse fill="none" stroke="cadetblue" stroke-width="3" cx="200" cy="-474" rx="18" ry="18"/>
</g>
<!-- cs_1&#45;&gt;cs1_n2_1 -->
<g id="edge17" class="edge"><title>cs_1&#45;&gt;cs1_n2_1</title>
<path fill="none" stroke="darkslategrey" stroke-dasharray="5,2" d="M198.321,-563.969C198.692,-544.306 199.299,-512.135 199.673,-492.341"/>
</g>
<!-- cs1_n2_2 -->
<g id="node14" class="node"><title>cs1_n2_2</title>
<ellipse fill="none" stroke="cadetblue" stroke-width="3" cx="254" cy="-474" rx="18" ry="18"/>
</g>
<!-- cs_1&#45;&gt;cs1_n2_2 -->
<g id="edge18" class="edge"><title>cs_1&#45;&gt;cs1_n2_2</title>
<path fill="none" stroke="darkslategrey" stroke-dasharray="5,2" d="M206.997,-563.969C217.757,-543.603 235.604,-509.821 245.934,-490.268"/>
<text text-anchor="middle" x="269" y="-534.8" font-family="Times New Roman,serif" font-size="14.00" fill="#ff7256">Record Buffers</text>
</g>
<!-- cs_1&#45;&gt;cs_n -->
<g id="edge53" class="edge"><title>cs_1&#45;&gt;cs_n</title>
<path fill="none" stroke="darkslategrey" stroke-dasharray="5,2" d="M323.759,-582C326.647,-582 329.534,-582 332.421,-582"/>
</g>
<!-- cs1_n1_4 -->
<g id="node7" class="node"><title>cs1_n1_4</title>
<polygon fill="none" stroke="cadetblue" stroke-width="3" points="86,-346 36,-346 32,-342 32,-292 82,-292 86,-296 86,-346"/>
<polyline fill="none" stroke="cadetblue" stroke-width="3" points="82,-342 32,-342 "/>
<polyline fill="none" stroke="cadetblue" stroke-width="3" points="82,-342 82,-292 "/>
<polyline fill="none" stroke="cadetblue" stroke-width="3" points="82,-342 86,-346 "/>
<text text-anchor="middle" x="59" y="-314.8" font-family="Times New Roman,serif" font-size="14.00"> State </text>
<text text-anchor="middle" x="59" y="-299.8" font-family="Times New Roman,serif" font-size="14.00"> Store</text>
</g>
<!-- cs1_n1_5 -->
<g id="node11" class="node"><title>cs1_n1_5</title>
<ellipse fill="none" stroke="cadetblue" stroke-width="3" cx="140" cy="-319" rx="18" ry="18"/>
</g>
<!-- cs1_n1_4&#45;&gt;cs1_n1_5 -->
<g id="edge9" class="edge"><title>cs1_n1_4&#45;&gt;cs1_n1_5</title>
<path fill="none" stroke="darkslategrey" stroke-dasharray="5,2" d="M96.257,-319C104.815,-319 113.372,-319 121.93,-319"/>
<polygon fill="darkslategrey" stroke="darkslategrey" points="86.2109,-319 96.211,-314.5 91.2109,-319 96.2109,-319 96.2109,-319 96.2109,-319 91.2109,-319 96.2109,-323.5 86.2109,-319 86.2109,-319"/>
</g>
<!-- prdc_1 -->
<g id="node17" class="node"><title>prdc_1</title>
<polygon fill="gainsboro" stroke="black" stroke-width="3" points="285,-255 191,-255 191,-219 285,-219 285,-255"/>
<text text-anchor="start" x="199" y="-233.3" font-family="Arial Black" font-size="14.00" fill="#ff7256">Producer 1</text>
</g>
<!-- cs1_n1_4&#45;&gt;prdc_1 -->
<g id="edge19" class="edge"><title>cs1_n1_4&#45;&gt;prdc_1</title>
<path fill="none" stroke="darkslategrey" stroke-width="0.5" stroke-dasharray="5,2" d="M86.1077,-299.381C94.5162,-294.034 103.954,-288.451 113,-284 137.898,-271.749 166.92,-260.876 190.729,-252.781"/>
</g>
<!-- cs1_n1_3 -->
<g id="node10" class="node"><title>cs1_n1_3</title>
<ellipse fill="none" stroke="cadetblue" stroke-width="3" cx="113" cy="-401" rx="18" ry="18"/>
</g>
<!-- cs1_n1_1&#45;&gt;cs1_n1_3 -->
<g id="edge5" class="edge"><title>cs1_n1_1&#45;&gt;cs1_n1_3</title>
<path fill="none" stroke="#c1cdcd" stroke-width="4" d="M92.1267,-456.889C96.5454,-445.269 102.484,-429.652 106.898,-418.047"/>
</g>
<!-- cs1_n1_2&#45;&gt;cs1_n1_3 -->
<g id="edge6" class="edge"><title>cs1_n1_2&#45;&gt;cs1_n1_3</title>
<path fill="none" stroke="#c1cdcd" stroke-width="4" d="M133.873,-456.889C129.455,-445.269 123.516,-429.652 119.102,-418.047"/>
</g>
<!-- cs1_n1_3&#45;&gt;cs1_n1_4 -->
<g id="edge8" class="edge"><title>cs1_n1_3&#45;&gt;cs1_n1_4</title>
<path fill="none" stroke="darkslategrey" stroke-dasharray="5,2" d="M103.346,-385.698C97.5051,-377.045 89.7864,-365.609 82.4279,-354.708"/>
<polygon fill="darkslategrey" stroke="darkslategrey" points="76.6466,-346.143 85.9712,-351.914 79.444,-350.287 82.2414,-354.432 82.2414,-354.432 82.2414,-354.432 79.444,-350.287 78.5115,-356.949 76.6466,-346.143 76.6466,-346.143"/>
</g>
<!-- cs1_n1_3&#45;&gt;cs1_n1_5 -->
<g id="edge7" class="edge"><title>cs1_n1_3&#45;&gt;cs1_n1_5</title>
<path fill="none" stroke="#c1cdcd" stroke-width="4" d="M118.464,-383.811C123.148,-369.931 129.862,-350.038 134.544,-336.165"/>
</g>
<!-- cs1_n1_5&#45;&gt;prdc_1 -->
<g id="edge20" class="edge"><title>cs1_n1_5&#45;&gt;prdc_1</title>
<path fill="none" stroke="darkslategrey" stroke-width="0.5" stroke-dasharray="5,2" d="M150.673,-304.359C156.105,-297.837 163.024,-290.134 170,-284 182.095,-273.364 196.761,-263.155 209.373,-255.069"/>
</g>
<!-- cs1_n2_4 -->
<g id="node12" class="node"><title>cs1_n2_4</title>
<polygon fill="none" stroke="cadetblue" stroke-width="3" points="236,-346 186,-346 182,-342 182,-292 232,-292 236,-296 236,-346"/>
<polyline fill="none" stroke="cadetblue" stroke-width="3" points="232,-342 182,-342 "/>
<polyline fill="none" stroke="cadetblue" stroke-width="3" points="232,-342 232,-292 "/>
<polyline fill="none" stroke="cadetblue" stroke-width="3" points="232,-342 236,-346 "/>
<text text-anchor="middle" x="209" y="-314.8" font-family="Times New Roman,serif" font-size="14.00"> State </text>
<text text-anchor="middle" x="209" y="-299.8" font-family="Times New Roman,serif" font-size="14.00"> Store</text>
</g>
<!-- cs1_n2_5 -->
<g id="node16" class="node"><title>cs1_n2_5</title>
<ellipse fill="none" stroke="cadetblue" stroke-width="3" cx="290" cy="-319" rx="18" ry="18"/>
</g>
<!-- cs1_n2_4&#45;&gt;cs1_n2_5 -->
<g id="edge14" class="edge"><title>cs1_n2_4&#45;&gt;cs1_n2_5</title>
<path fill="none" stroke="darkslategrey" stroke-dasharray="5,2" d="M246.257,-319C254.815,-319 263.372,-319 271.93,-319"/>
<polygon fill="darkslategrey" stroke="darkslategrey" points="236.211,-319 246.211,-314.5 241.211,-319 246.211,-319 246.211,-319 246.211,-319 241.211,-319 246.211,-323.5 236.211,-319 236.211,-319"/>
</g>
<!-- cs1_n2_4&#45;&gt;prdc_1 -->
<g id="edge21" class="edge"><title>cs1_n2_4&#45;&gt;prdc_1</title>
<path fill="none" stroke="darkslategrey" stroke-width="0.5" stroke-dasharray="5,2" d="M218.496,-291.805C222.857,-279.775 227.906,-265.846 231.774,-255.174"/>
</g>
<!-- cs1_n2_3 -->
<g id="node15" class="node"><title>cs1_n2_3</title>
<ellipse fill="none" stroke="cadetblue" stroke-width="3" cx="226" cy="-401" rx="18" ry="18"/>
</g>
<!-- cs1_n2_1&#45;&gt;cs1_n2_3 -->
<g id="edge10" class="edge"><title>cs1_n2_1&#45;&gt;cs1_n2_3</title>
<path fill="none" stroke="#c1cdcd" stroke-width="4" d="M205.9,-456.889C210.155,-445.269 215.874,-429.652 220.124,-418.047"/>
</g>
<!-- cs1_n2_2&#45;&gt;cs1_n2_3 -->
<g id="edge11" class="edge"><title>cs1_n2_2&#45;&gt;cs1_n2_3</title>
<path fill="none" stroke="#c1cdcd" stroke-width="4" d="M247.646,-456.889C243.064,-445.269 236.905,-429.652 232.328,-418.047"/>
</g>
<!-- cs1_n2_3&#45;&gt;cs1_n2_4 -->
<g id="edge13" class="edge"><title>cs1_n2_3&#45;&gt;cs1_n2_4</title>
<path fill="none" stroke="darkslategrey" stroke-dasharray="5,2" d="M222.395,-383.034C220.72,-375.152 218.66,-365.461 216.663,-356.062"/>
<polygon fill="darkslategrey" stroke="darkslategrey" points="214.541,-346.077 221.022,-354.924 215.581,-350.968 216.62,-355.859 216.62,-355.859 216.62,-355.859 215.581,-350.968 212.218,-356.794 214.541,-346.077 214.541,-346.077"/>
</g>
<!-- cs1_n2_3&#45;&gt;cs1_n2_5 -->
<g id="edge12" class="edge"><title>cs1_n2_3&#45;&gt;cs1_n2_5</title>
<path fill="none" stroke="#c1cdcd" stroke-width="4" d="M236.857,-386.429C248.626,-371.718 267.3,-348.374 279.09,-333.637"/>
</g>
<!-- cs1_n2_5&#45;&gt;prdc_1 -->
<g id="edge22" class="edge"><title>cs1_n2_5&#45;&gt;prdc_1</title>
<path fill="none" stroke="darkslategrey" stroke-width="0.5" stroke-dasharray="5,2" d="M280.462,-303.327C271.608,-289.704 258.425,-269.424 249.101,-255.079"/>
</g>
<!-- os1 -->
<g id="node30" class="node"><title>os1</title>
<polygon fill="#98f5ff" stroke="#7ac5cd" stroke-width="3" points="248,-16.5 248,-154.5 302,-154.5 302,-16.5 248,-16.5"/>
<text text-anchor="middle" x="275" y="-139.3" font-family="Times New Roman,serif" font-size="14.00"> </text>
<polyline fill="none" stroke="#7ac5cd" stroke-width="3" points="248,-131.5 302,-131.5 "/>
<text text-anchor="middle" x="275" y="-116.3" font-family="Times New Roman,serif" font-size="14.00"> </text>
<polyline fill="none" stroke="#7ac5cd" stroke-width="3" points="248,-108.5 302,-108.5 "/>
<text text-anchor="middle" x="275" y="-93.3" font-family="Times New Roman,serif" font-size="14.00"> </text>
<polyline fill="none" stroke="#7ac5cd" stroke-width="3" points="248,-85.5 302,-85.5 "/>
<text text-anchor="middle" x="275" y="-70.3" font-family="Times New Roman,serif" font-size="14.00"> </text>
<polyline fill="none" stroke="#7ac5cd" stroke-width="3" points="248,-62.5 302,-62.5 "/>
<text text-anchor="middle" x="275" y="-47.3" font-family="Times New Roman,serif" font-size="14.00"> </text>
<polyline fill="none" stroke="#7ac5cd" stroke-width="3" points="248,-39.5 302,-39.5 "/>
<text text-anchor="middle" x="275" y="-24.3" font-family="Times New Roman,serif" font-size="14.00"> </text>
</g>
<!-- prdc_1&#45;&gt;os1 -->
<g id="edge45" class="edge"><title>prdc_1&#45;&gt;os1</title>
<path fill="none" stroke="#7ac5cd" stroke-width="0.7" stroke-dasharray="5,2" d="M242.244,-218.85C246.174,-202.974 252.28,-178.302 258.16,-154.541"/>
</g>
<!-- os2 -->
<g id="node31" class="node"><title>os2</title>
<polygon fill="#98f5ff" stroke="#7ac5cd" stroke-width="3" points="158,-16.5 158,-154.5 212,-154.5 212,-16.5 158,-16.5"/>
<text text-anchor="middle" x="185" y="-139.3" font-family="Times New Roman,serif" font-size="14.00"> </text>
<polyline fill="none" stroke="#7ac5cd" stroke-width="3" points="158,-131.5 212,-131.5 "/>
<text text-anchor="middle" x="185" y="-116.3" font-family="Times New Roman,serif" font-size="14.00"> </text>
<polyline fill="none" stroke="#7ac5cd" stroke-width="3" points="158,-108.5 212,-108.5 "/>
<text text-anchor="middle" x="185" y="-93.3" font-family="Times New Roman,serif" font-size="14.00"> </text>
<polyline fill="none" stroke="#7ac5cd" stroke-width="3" points="158,-85.5 212,-85.5 "/>
<text text-anchor="middle" x="185" y="-70.3" font-family="Times New Roman,serif" font-size="14.00"> </text>
<polyline fill="none" stroke="#7ac5cd" stroke-width="3" points="158,-62.5 212,-62.5 "/>
<text text-anchor="middle" x="185" y="-47.3" font-family="Times New Roman,serif" font-size="14.00"> </text>
<polyline fill="none" stroke="#7ac5cd" stroke-width="3" points="158,-39.5 212,-39.5 "/>
<text text-anchor="middle" x="185" y="-24.3" font-family="Times New Roman,serif" font-size="14.00"> </text>
</g>
<!-- prdc_1&#45;&gt;os2 -->
<g id="edge46" class="edge"><title>prdc_1&#45;&gt;os2</title>
<path fill="none" stroke="#7ac5cd" stroke-width="0.7" stroke-dasharray="5,2" d="M231.92,-218.85C226.292,-202.974 217.545,-178.302 209.122,-154.541"/>
</g>
<!-- os3 -->
<g id="node32" class="node"><title>os3</title>
<polygon fill="#98f5ff" stroke="#7ac5cd" stroke-width="3" points="569,-16.5 569,-154.5 623,-154.5 623,-16.5 569,-16.5"/>
<text text-anchor="middle" x="596" y="-139.3" font-family="Times New Roman,serif" font-size="14.00"> </text>
<polyline fill="none" stroke="#7ac5cd" stroke-width="3" points="569,-131.5 623,-131.5 "/>
<text text-anchor="middle" x="596" y="-116.3" font-family="Times New Roman,serif" font-size="14.00"> </text>
<polyline fill="none" stroke="#7ac5cd" stroke-width="3" points="569,-108.5 623,-108.5 "/>
<text text-anchor="middle" x="596" y="-93.3" font-family="Times New Roman,serif" font-size="14.00"> </text>
<polyline fill="none" stroke="#7ac5cd" stroke-width="3" points="569,-85.5 623,-85.5 "/>
<text text-anchor="middle" x="596" y="-70.3" font-family="Times New Roman,serif" font-size="14.00"> </text>
<polyline fill="none" stroke="#7ac5cd" stroke-width="3" points="569,-62.5 623,-62.5 "/>
<text text-anchor="middle" x="596" y="-47.3" font-family="Times New Roman,serif" font-size="14.00"> </text>
<polyline fill="none" stroke="#7ac5cd" stroke-width="3" points="569,-39.5 623,-39.5 "/>
<text text-anchor="middle" x="596" y="-24.3" font-family="Times New Roman,serif" font-size="14.00"> </text>
</g>
<!-- prdc_1&#45;&gt;os3 -->
<g id="edge47" class="edge"><title>prdc_1&#45;&gt;os3</title>
<path fill="none" stroke="#7ac5cd" stroke-width="0.7" stroke-dasharray="5,2" d="M277.169,-218.944C292.708,-212.895 310.918,-206.682 328,-203 378.533,-192.108 518.797,-217.218 560,-186 570.469,-178.068 577.898,-166.805 583.169,-154.69"/>
</g>
<!-- os4 -->
<g id="node33" class="node"><title>os4</title>
<polygon fill="#98f5ff" stroke="#7ac5cd" stroke-width="3" points="320,-16.5 320,-154.5 374,-154.5 374,-16.5 320,-16.5"/>
<text text-anchor="middle" x="347" y="-139.3" font-family="Times New Roman,serif" font-size="14.00"> </text>
<polyline fill="none" stroke="#7ac5cd" stroke-width="3" points="320,-131.5 374,-131.5 "/>
<text text-anchor="middle" x="347" y="-116.3" font-family="Times New Roman,serif" font-size="14.00"> </text>
<polyline fill="none" stroke="#7ac5cd" stroke-width="3" points="320,-108.5 374,-108.5 "/>
<text text-anchor="middle" x="347" y="-93.3" font-family="Times New Roman,serif" font-size="14.00"> </text>
<polyline fill="none" stroke="#7ac5cd" stroke-width="3" points="320,-85.5 374,-85.5 "/>
<text text-anchor="middle" x="347" y="-70.3" font-family="Times New Roman,serif" font-size="14.00"> </text>
<polyline fill="none" stroke="#7ac5cd" stroke-width="3" points="320,-62.5 374,-62.5 "/>
<text text-anchor="middle" x="347" y="-47.3" font-family="Times New Roman,serif" font-size="14.00"> </text>
<polyline fill="none" stroke="#7ac5cd" stroke-width="3" points="320,-39.5 374,-39.5 "/>
<text text-anchor="middle" x="347" y="-24.3" font-family="Times New Roman,serif" font-size="14.00"> </text>
</g>
<!-- prdc_1&#45;&gt;os4 -->
<g id="edge48" class="edge"><title>prdc_1&#45;&gt;os4</title>
<path fill="none" stroke="#7ac5cd" stroke-width="0.7" stroke-dasharray="5,2" d="M272.056,-218.8C285.725,-210.473 300.657,-199.362 311,-186 318.253,-176.63 324.136,-165.666 328.879,-154.505"/>
</g>
<!-- csn_n1_1 -->
<g id="node20" class="node"><title>csn_n1_1</title>
<ellipse fill="none" stroke="cadetblue" stroke-width="3" cx="402" cy="-474" rx="18" ry="18"/>
</g>
<!-- cs_n&#45;&gt;csn_n1_1 -->
<g id="edge33" class="edge"><title>cs_n&#45;&gt;csn_n1_1</title>
<path fill="none" stroke="darkslategrey" stroke-dasharray="5,2" d="M453.447,-563.824C446.428,-552.325 437.054,-536.819 429,-523 422.645,-512.096 415.665,-499.675 410.394,-490.2"/>
</g>
<!-- csn_n1_2 -->
<g id="node21" class="node"><title>csn_n1_2</title>
<ellipse fill="none" stroke="cadetblue" stroke-width="3" cx="456" cy="-474" rx="18" ry="18"/>
</g>
<!-- cs_n&#45;&gt;csn_n1_2 -->
<g id="edge34" class="edge"><title>cs_n&#45;&gt;csn_n1_2</title>
<path fill="none" stroke="darkslategrey" stroke-dasharray="5,2" d="M462.715,-563.969C461.222,-544.189 458.774,-511.751 457.282,-491.988"/>
</g>
<!-- csn_n2_1 -->
<g id="node25" class="node"><title>csn_n2_1</title>
<ellipse fill="none" stroke="cadetblue" stroke-width="3" cx="516" cy="-474" rx="18" ry="18"/>
</g>
<!-- cs_n&#45;&gt;csn_n2_1 -->
<g id="edge35" class="edge"><title>cs_n&#45;&gt;csn_n2_1</title>
<path fill="none" stroke="darkslategrey" stroke-dasharray="5,2" d="M472.355,-563.969C482.288,-543.72 498.728,-510.209 508.344,-490.607"/>
</g>
<!-- csn_n2_2 -->
<g id="node26" class="node"><title>csn_n2_2</title>
<ellipse fill="none" stroke="cadetblue" stroke-width="3" cx="570" cy="-474" rx="18" ry="18"/>
</g>
<!-- cs_n&#45;&gt;csn_n2_2 -->
<g id="edge36" class="edge"><title>cs_n&#45;&gt;csn_n2_2</title>
<path fill="none" stroke="darkslategrey" stroke-dasharray="5,2" d="M493.048,-563.982C509.117,-553.576 528.671,-539.175 543,-523 551.496,-513.41 558.495,-500.708 563.237,-490.78"/>
<text text-anchor="middle" x="577" y="-534.8" font-family="Times New Roman,serif" font-size="14.00" fill="#ff7256">Record Buffers</text>
</g>
<!-- csn_n1_4 -->
<g id="node19" class="node"><title>csn_n1_4</title>
<polygon fill="none" stroke="cadetblue" stroke-width="3" points="402,-346 352,-346 348,-342 348,-292 398,-292 402,-296 402,-346"/>
<polyline fill="none" stroke="cadetblue" stroke-width="3" points="398,-342 348,-342 "/>
<polyline fill="none" stroke="cadetblue" stroke-width="3" points="398,-342 398,-292 "/>
<polyline fill="none" stroke="cadetblue" stroke-width="3" points="398,-342 402,-346 "/>
<text text-anchor="middle" x="375" y="-314.8" font-family="Times New Roman,serif" font-size="14.00"> State </text>
<text text-anchor="middle" x="375" y="-299.8" font-family="Times New Roman,serif" font-size="14.00"> Store</text>
</g>
<!-- csn_n1_5 -->
<g id="node23" class="node"><title>csn_n1_5</title>
<ellipse fill="none" stroke="cadetblue" stroke-width="3" cx="456" cy="-319" rx="18" ry="18"/>
</g>
<!-- csn_n1_4&#45;&gt;csn_n1_5 -->
<g id="edge27" class="edge"><title>csn_n1_4&#45;&gt;csn_n1_5</title>
<path fill="none" stroke="darkslategrey" stroke-dasharray="5,2" d="M412.257,-319C420.815,-319 429.372,-319 437.93,-319"/>
<polygon fill="darkslategrey" stroke="darkslategrey" points="402.211,-319 412.211,-314.5 407.211,-319 412.211,-319 412.211,-319 412.211,-319 407.211,-319 412.211,-323.5 402.211,-319 402.211,-319"/>
</g>
<!-- prdc_n -->
<g id="node29" class="node"><title>prdc_n</title>
<polygon fill="gainsboro" stroke="black" stroke-width="3" points="446.5,-255 351.5,-255 351.5,-219 446.5,-219 446.5,-255"/>
<text text-anchor="start" x="359.5" y="-233.3" font-family="Arial Black" font-size="14.00" fill="#ff7256">Producer n</text>
</g>
<!-- csn_n1_4&#45;&gt;prdc_n -->
<g id="edge37" class="edge"><title>csn_n1_4&#45;&gt;prdc_n</title>
<path fill="none" stroke="darkslategrey" stroke-width="0.5" stroke-dasharray="5,2" d="M382.858,-291.805C386.468,-279.775 390.646,-265.846 393.848,-255.174"/>
</g>
<!-- csn_n1_3 -->
<g id="node22" class="node"><title>csn_n1_3</title>
<ellipse fill="none" stroke="cadetblue" stroke-width="3" cx="429" cy="-401" rx="18" ry="18"/>
</g>
<!-- csn_n1_1&#45;&gt;csn_n1_3 -->
<g id="edge23" class="edge"><title>csn_n1_1&#45;&gt;csn_n1_3</title>
<path fill="none" stroke="#c1cdcd" stroke-width="4" d="M408.127,-456.889C412.545,-445.269 418.484,-429.652 422.898,-418.047"/>
</g>
<!-- csn_n1_2&#45;&gt;csn_n1_3 -->
<g id="edge24" class="edge"><title>csn_n1_2&#45;&gt;csn_n1_3</title>
<path fill="none" stroke="#c1cdcd" stroke-width="4" d="M449.873,-456.889C445.455,-445.269 439.516,-429.652 435.102,-418.047"/>
</g>
<!-- csn_n1_3&#45;&gt;csn_n1_4 -->
<g id="edge26" class="edge"><title>csn_n1_3&#45;&gt;csn_n1_4</title>
<path fill="none" stroke="darkslategrey" stroke-dasharray="5,2" d="M419.346,-385.698C413.505,-377.045 405.786,-365.609 398.428,-354.708"/>
<polygon fill="darkslategrey" stroke="darkslategrey" points="392.647,-346.143 401.971,-351.914 395.444,-350.287 398.241,-354.432 398.241,-354.432 398.241,-354.432 395.444,-350.287 394.512,-356.949 392.647,-346.143 392.647,-346.143"/>
</g>
<!-- csn_n1_3&#45;&gt;csn_n1_5 -->
<g id="edge25" class="edge"><title>csn_n1_3&#45;&gt;csn_n1_5</title>
<path fill="none" stroke="#c1cdcd" stroke-width="4" d="M434.464,-383.811C439.148,-369.931 445.862,-350.038 450.544,-336.165"/>
</g>
<!-- csn_n1_5&#45;&gt;prdc_n -->
<g id="edge38" class="edge"><title>csn_n1_5&#45;&gt;prdc_n</title>
<path fill="none" stroke="darkslategrey" stroke-width="0.5" stroke-dasharray="5,2" d="M445.81,-303.698C436.139,-290.125 421.591,-269.706 411.284,-255.24"/>
</g>
<!-- csn_n2_4 -->
<g id="node24" class="node"><title>csn_n2_4</title>
<polygon fill="none" stroke="cadetblue" stroke-width="3" points="552,-346 502,-346 498,-342 498,-292 548,-292 552,-296 552,-346"/>
<polyline fill="none" stroke="cadetblue" stroke-width="3" points="548,-342 498,-342 "/>
<polyline fill="none" stroke="cadetblue" stroke-width="3" points="548,-342 548,-292 "/>
<polyline fill="none" stroke="cadetblue" stroke-width="3" points="548,-342 552,-346 "/>
<text text-anchor="middle" x="525" y="-314.8" font-family="Times New Roman,serif" font-size="14.00"> State </text>
<text text-anchor="middle" x="525" y="-299.8" font-family="Times New Roman,serif" font-size="14.00"> Store</text>
</g>
<!-- csn_n2_5 -->
<g id="node28" class="node"><title>csn_n2_5</title>
<ellipse fill="none" stroke="cadetblue" stroke-width="3" cx="606" cy="-319" rx="18" ry="18"/>
</g>
<!-- csn_n2_4&#45;&gt;csn_n2_5 -->
<g id="edge32" class="edge"><title>csn_n2_4&#45;&gt;csn_n2_5</title>
<path fill="none" stroke="darkslategrey" stroke-dasharray="5,2" d="M562.257,-319C570.815,-319 579.372,-319 587.93,-319"/>
<polygon fill="darkslategrey" stroke="darkslategrey" points="552.211,-319 562.211,-314.5 557.211,-319 562.211,-319 562.211,-319 562.211,-319 557.211,-319 562.211,-323.5 552.211,-319 552.211,-319"/>
</g>
<!-- csn_n2_4&#45;&gt;prdc_n -->
<g id="edge39" class="edge"><title>csn_n2_4&#45;&gt;prdc_n</title>
<path fill="none" stroke="darkslategrey" stroke-width="0.5" stroke-dasharray="5,2" d="M497.943,-293.029C494.046,-289.846 489.999,-286.746 486,-284 470.225,-273.168 451.601,-263.01 435.64,-255.009"/>
</g>
<!-- csn_n2_3 -->
<g id="node27" class="node"><title>csn_n2_3</title>
<ellipse fill="none" stroke="cadetblue" stroke-width="3" cx="542" cy="-401" rx="18" ry="18"/>
</g>
<!-- csn_n2_1&#45;&gt;csn_n2_3 -->
<g id="edge28" class="edge"><title>csn_n2_1&#45;&gt;csn_n2_3</title>
<path fill="none" stroke="#c1cdcd" stroke-width="4" d="M521.9,-456.889C526.155,-445.269 531.874,-429.652 536.124,-418.047"/>
</g>
<!-- csn_n2_2&#45;&gt;csn_n2_3 -->
<g id="edge29" class="edge"><title>csn_n2_2&#45;&gt;csn_n2_3</title>
<path fill="none" stroke="#c1cdcd" stroke-width="4" d="M563.646,-456.889C559.064,-445.269 552.905,-429.652 548.328,-418.047"/>
</g>
<!-- csn_n2_3&#45;&gt;csn_n2_4 -->
<g id="edge31" class="edge"><title>csn_n2_3&#45;&gt;csn_n2_4</title>
<path fill="none" stroke="darkslategrey" stroke-dasharray="5,2" d="M538.395,-383.034C536.72,-375.152 534.66,-365.461 532.663,-356.062"/>
<polygon fill="darkslategrey" stroke="darkslategrey" points="530.541,-346.077 537.022,-354.924 531.581,-350.968 532.62,-355.859 532.62,-355.859 532.62,-355.859 531.581,-350.968 528.218,-356.794 530.541,-346.077 530.541,-346.077"/>
</g>
<!-- csn_n2_3&#45;&gt;csn_n2_5 -->
<g id="edge30" class="edge"><title>csn_n2_3&#45;&gt;csn_n2_5</title>
<path fill="none" stroke="#c1cdcd" stroke-width="4" d="M552.857,-386.429C564.626,-371.718 583.3,-348.374 595.09,-333.637"/>
</g>
<!-- csn_n2_5&#45;&gt;prdc_n -->
<g id="edge40" class="edge"><title>csn_n2_5&#45;&gt;prdc_n</title>
<path fill="none" stroke="darkslategrey" stroke-width="0.5" stroke-dasharray="5,2" d="M593.084,-306.178C584.525,-298.888 572.746,-289.847 561,-284 524.619,-265.891 479.985,-253.885 446.787,-246.695"/>
</g>
<!-- prdc_n&#45;&gt;os1 -->
<g id="edge49" class="edge"><title>prdc_n&#45;&gt;os1</title>
<path fill="none" stroke="#7ac5cd" stroke-width="0.7" stroke-dasharray="5,2" d="M355.23,-218.826C339.514,-210.841 322.782,-199.97 311,-186 303.243,-176.802 297.098,-165.797 292.249,-154.512"/>
</g>
<!-- prdc_n&#45;&gt;os2 -->
<g id="edge50" class="edge"><title>prdc_n&#45;&gt;os2</title>
<path fill="none" stroke="#7ac5cd" stroke-width="0.7" stroke-dasharray="5,2" d="M366.804,-218.99C354.874,-213.238 341.066,-207.213 328,-203 289.672,-190.642 271.512,-209.763 239,-186 227.813,-177.824 218.692,-166.605 211.348,-154.639"/>
</g>
<!-- prdc_n&#45;&gt;os3 -->
<g id="edge51" class="edge"><title>prdc_n&#45;&gt;os3</title>
<path fill="none" stroke="#7ac5cd" stroke-width="0.7" stroke-dasharray="5,2" d="M446.614,-232.43C482.061,-227.374 529.414,-215.209 560,-186 569.034,-177.373 575.809,-166.308 580.887,-154.71"/>
</g>
<!-- prdc_n&#45;&gt;os4 -->
<g id="edge52" class="edge"><title>prdc_n&#45;&gt;os4</title>
<path fill="none" stroke="#7ac5cd" stroke-width="0.7" stroke-dasharray="5,2" d="M393.035,-218.85C387.513,-202.974 378.931,-178.302 370.666,-154.541"/>
</g>
<!-- os1&#45;&gt;os2 -->
<!-- os2&#45;&gt;os3 -->
<!-- os3&#45;&gt;os4 -->
<!-- lbl_txt_os -->
<g id="node34" class="node"><title>lbl_txt_os</title>
<text text-anchor="middle" x="480" y="-81.8" font-family="Times New Roman,serif" font-size="14.00">Output Kafka Streams</text>
</g>
<!-- os4&#45;&gt;lbl_txt_os -->
</g>
</svg>
