<?xml version="1.0" encoding="UTF-8" standalone="no"?>
<!DOCTYPE svg PUBLIC "-//W3C//DTD SVG 1.1//EN"
 "http://www.w3.org/Graphics/SVG/1.1/DTD/svg11.dtd">
<!-- Generated by graphviz version 2.38.0 (20140413.2041)
 -->
<!-- Title: g1 Pages: 1 -->
<svg width="575pt" height="332pt"
 viewBox="0.00 0.00 574.50 331.55" xmlns="http://www.w3.org/2000/svg" xmlns:xlink="http://www.w3.org/1999/xlink">
<g id="graph0" class="graph" transform="scale(1 1) rotate(0) translate(4 327.549)">
<title>g1</title>
<polygon fill="white" stroke="none" points="-4,4 -4,-327.549 570.5,-327.549 570.5,4 -4,4"/>
<g id="clust1" class="cluster"><title>cluster_top_label</title>
</g>
<g id="clust2" class="cluster"><title>cluster_your_app_label</title>
</g>
<g id="clust3" class="cluster"><title>cluster_outer</title>
<polygon fill="none" stroke="black" stroke-dasharray="5,2" points="108,-89 108,-253.549 524,-253.549 524,-89 108,-89"/>
<text text-anchor="middle" x="316" y="-238.349" font-family="Times New Roman,serif" font-size="14.00"> &#160;&#160;&#160;</text>
</g>
<g id="clust4" class="cluster"><title>cluster_app_inst_1</title>
<polygon fill="none" stroke="black" points="252,-97 252,-222.549 380,-222.549 380,-97 252,-97"/>
<text text-anchor="middle" x="316" y="-207.349" font-family="Times New Roman,serif" font-size="14.00">App Instance 1</text>
</g>
<g id="clust5" class="cluster"><title>cluster_app_inst_2</title>
<polygon fill="none" stroke="black" points="116,-97 116,-222.549 244,-222.549 244,-97 116,-97"/>
<text text-anchor="middle" x="180" y="-207.349" font-family="Times New Roman,serif" font-size="14.00">App Instance 2</text>
</g>
<g id="clust6" class="cluster"><title>cluster_app_inst_3</title>
<polygon fill="none" stroke="black" points="388,-97 388,-222.549 516,-222.549 516,-97 388,-97"/>
<text text-anchor="middle" x="452" y="-207.349" font-family="Times New Roman,serif" font-size="14.00">App Instance 3</text>
</g>
<!-- top_lbl -->
<g id="node1" class="node"><title>top_lbl</title>
<text text-anchor="middle" x="230" y="-292.349" font-family="Times New Roman,serif" font-size="14.00" fill="#5c5c5c"> You can run one or more instances of you App. They run </text>
<text text-anchor="middle" x="230" y="-277.349" font-family="Times New Roman,serif" font-size="14.00" fill="#5c5c5c"> independently but will automatically discover each other and collaborate. </text>
</g>
<!-- app_lbl -->
<g id="node2" class="node"><title>app_lbl</title>
<text text-anchor="middle" x="65" y="-152.074" font-family="Times New Roman,serif" font-size="14.00"> Your </text>
<text text-anchor="middle" x="65" y="-137.074" font-family="Times New Roman,serif" font-size="14.00"> App</text>
</g>
<!-- top_lbl&#45;&gt;app_lbl -->
<!-- n1 -->
<g id="node3" class="node"><title>n1</title>
<polygon fill="darkorange" stroke="black" points="372.177,-148.274 344.088,-191.324 287.912,-191.324 259.823,-148.274 287.912,-105.225 344.088,-105.225 372.177,-148.274"/>
<text text-anchor="middle" x="316" y="-159.574" font-family="Times New Roman,serif" font-size="14.00"> Kafka </text>
<text text-anchor="middle" x="316" y="-144.574" font-family="Times New Roman,serif" font-size="14.00"> Streams </text>
<text text-anchor="middle" x="316" y="-129.574" font-family="Times New Roman,serif" font-size="14.00"> API</text>
</g>
<!-- top_lbl&#45;&gt;n1 -->
<g id="edge1" class="edge"><title>top_lbl:w&#45;&gt;n1:nw</title>
<path fill="none" stroke="#5c5c5c" d="M15,-288.549C6.54387,-288.549 10.0695,-275.576 16,-269.549 49.9781,-235.013 186.527,-276.609 238.738,-258.094"/>
<polygon fill="#5c5c5c" stroke="#5c5c5c" points="240.564,-261.096 248,-253.549 237.481,-254.812 240.564,-261.096"/>
</g>
<!-- n4 -->
<g id="node6" class="node"><title>n4</title>
<polygon fill="none" stroke="black" points="321.5,-69 238.5,-69 238.5,-0 321.5,-0 321.5,-69"/>
<text text-anchor="middle" x="280" y="-37.8" font-family="Times New Roman,serif" font-size="14.00"> &#160;&#160;Kafka &#160;&#160;&#160;</text>
<text text-anchor="middle" x="280" y="-22.8" font-family="Times New Roman,serif" font-size="14.00"> &#160;&#160;Cluster &#160;&#160;&#160;</text>
<text text-anchor="middle" x="280" y="-7.8" font-family="Times New Roman,serif" font-size="14.00"> &#160;</text>
</g>
<!-- n1&#45;&gt;n4 -->
<g id="edge3" class="edge"><title>n1:s&#45;&gt;n4</title>
<path fill="none" stroke="black" d="M315.046,-94.2518C314.026,-88.7417 312.25,-83.3239 310.022,-78.1413"/>
<polygon fill="black" stroke="black" points="311.568,-94.6511 316,-104.274 318.536,-93.9876 311.568,-94.6511"/>
<polygon fill="black" stroke="black" points="313.133,-76.5354 305.587,-69.0979 306.848,-79.6175 313.133,-76.5354"/>
</g>
<!-- n2 -->
<g id="node4" class="node"><title>n2</title>
<polygon fill="darkorange" stroke="black" points="236.177,-148.274 208.088,-191.324 151.912,-191.324 123.823,-148.274 151.912,-105.225 208.088,-105.225 236.177,-148.274"/>
<text text-anchor="middle" x="180" y="-159.574" font-family="Times New Roman,serif" font-size="14.00"> Kafka </text>
<text text-anchor="middle" x="180" y="-144.574" font-family="Times New Roman,serif" font-size="14.00"> Streams </text>
<text text-anchor="middle" x="180" y="-129.574" font-family="Times New Roman,serif" font-size="14.00"> API</text>
</g>
<!-- n2&#45;&gt;n4 -->
<g id="edge4" class="edge"><title>n2:s&#45;&gt;n4</title>
<path fill="none" stroke="black" d="M181.221,-94.2109C186.441,-73.2606 207.595,-59.1861 228.994,-50.0834"/>
<polygon fill="black" stroke="black" points="177.73,-93.9255 180,-104.274 184.679,-94.7687 177.73,-93.9255"/>
<polygon fill="black" stroke="black" points="230.433,-53.2785 238.46,-46.3628 227.872,-46.7638 230.433,-53.2785"/>
</g>
<!-- n3 -->
<g id="node5" class="node"><title>n3</title>
<polygon fill="darkorange" stroke="black" points="508.177,-148.274 480.088,-191.324 423.912,-191.324 395.823,-148.274 423.912,-105.225 480.088,-105.225 508.177,-148.274"/>
<text text-anchor="middle" x="452" y="-159.574" font-family="Times New Roman,serif" font-size="14.00"> Kafka </text>
<text text-anchor="middle" x="452" y="-144.574" font-family="Times New Roman,serif" font-size="14.00"> Streams </text>
<text text-anchor="middle" x="452" y="-129.574" font-family="Times New Roman,serif" font-size="14.00"> API</text>
</g>
<!-- n3&#45;&gt;n4 -->
<g id="edge5" class="edge"><title>n3:s&#45;&gt;n4</title>
<path fill="none" stroke="black" d="M451.036,-94.0668C442.896,-55.9504 384.822,-87.1993 331.317,-68.6882"/>
<polygon fill="black" stroke="black" points="447.575,-94.6478 452,-104.274 454.544,-93.9895 447.575,-94.6478"/>
<polygon fill="black" stroke="black" points="332.323,-65.3186 321.741,-64.7899 329.684,-71.802 332.323,-65.3186"/>
</g>
<!-- bottom_lbl -->
<g id="node7" class="node"><title>bottom_lbl</title>
<text text-anchor="middle" x="453" y="-53.3" font-family="Times New Roman,serif" font-size="14.00" fill="#5c5c5c"> You can elastically add and remove </text>
<text text-anchor="middle" x="453" y="-38.3" font-family="Times New Roman,serif" font-size="14.00" fill="#5c5c5c"> app instances during live operations. </text>
<text text-anchor="middle" x="453" y="-23.3" font-family="Times New Roman,serif" font-size="14.00" fill="#5c5c5c"> If one instance dies, then the other </text>
<text text-anchor="middle" x="453" y="-8.3" font-family="Times New Roman,serif" font-size="14.00" fill="#5c5c5c"> instances will take over its work. </text>
</g>
<!-- n3&#45;&gt;bottom_lbl -->
<g id="edge6" class="edge"><title>n3&#45;&gt;bottom_lbl:ne</title>
<path fill="none" stroke="#5c5c5c" d="M493.724,-87.2561C494.18,-80.6078 492.327,-74.3274 487,-69"/>
<polygon fill="#5c5c5c" stroke="#5c5c5c" points="491.54,-97.1918 489.292,-86.4588 492.614,-92.3085 493.687,-87.4251 493.687,-87.4251 493.687,-87.4251 492.614,-92.3085 498.082,-88.3914 491.54,-97.1918 491.54,-97.1918"/>
</g>
</g>
</svg>
