<?xml version="1.0" encoding="UTF-8" standalone="no"?>
<!DOCTYPE svg PUBLIC "-//W3C//DTD SVG 1.1//EN"
 "http://www.w3.org/Graphics/SVG/1.1/DTD/svg11.dtd">
<!-- Generated by graphviz version 2.38.0 (20140413.2041)
 -->
<!-- Title: g1 Pages: 1 -->
<svg width="535pt" height="483pt"
 viewBox="0.00 0.00 534.95 483.13" xmlns="http://www.w3.org/2000/svg" xmlns:xlink="http://www.w3.org/1999/xlink">
<g id="graph0" class="graph" transform="scale(1 1) rotate(0) translate(4 479.131)">
<title>g1</title>
<polygon fill="white" stroke="none" points="-4,4 -4,-479.131 530.945,-479.131 530.945,4 -4,4"/>
<!-- INITIAL_STATE_ -->
<g id="node1" class="node"><title>INITIAL_STATE_</title>
<ellipse fill="none" stroke="#1c86ee" cx="300" cy="-420.436" rx="50.8774" ry="50.8774"/>
<ellipse fill="none" stroke="#1c86ee" cx="300" cy="-420.436" rx="54.8917" ry="54.8917"/>
<text text-anchor="middle" x="300" y="-416.736" font-family="Times New Roman,serif" font-size="14.00" fill="crimson">Initial State</text>
</g>
<!-- DO_SIM_CHECK_ -->
<g id="node2" class="node"><title>DO_SIM_CHECK_</title>
<ellipse fill="none" stroke="#1c86ee" cx="94" cy="-287.87" rx="65.5227" ry="26.7407"/>
<text text-anchor="middle" x="94" y="-291.67" font-family="Times New Roman,serif" font-size="14.00" fill="crimson">Do Similarity </text>
<text text-anchor="middle" x="94" y="-276.67" font-family="Times New Roman,serif" font-size="14.00" fill="crimson">Check</text>
</g>
<!-- INITIAL_STATE_&#45;&gt;DO_SIM_CHECK_ -->
<g id="edge3" class="edge"><title>INITIAL_STATE_&#45;&gt;DO_SIM_CHECK_</title>
<path fill="none" stroke="#ff1493" stroke-dasharray="5,2" d="M254.026,-390.297C219.193,-368.219 171.654,-338.088 137.455,-316.412"/>
<polygon fill="#ff1493" stroke="#ff1493" points="138.945,-313.213 128.625,-310.816 135.198,-319.125 138.945,-313.213"/>
<text text-anchor="middle" x="195" y="-336.54" font-family="Times New Roman,serif" font-size="14.00"> (1)</text>
</g>
<!-- ERROR_ -->
<g id="node8" class="node"><title>ERROR_</title>
<ellipse fill="none" stroke="#1c86ee" cx="112" cy="-18" rx="46.5926" ry="18"/>
<text text-anchor="middle" x="112" y="-14.3" font-family="Times New Roman,serif" font-size="14.00" fill="crimson">ERROR_</text>
</g>
<!-- INITIAL_STATE_&#45;&gt;ERROR_ -->
<g id="edge1" class="edge"><title>INITIAL_STATE_&#45;&gt;ERROR_</title>
<path fill="none" stroke="forestgreen" stroke-dasharray="5,2" d="M244.975,-419.186C158.368,-415.573 0,-394.522 0,-288.87 0,-288.87 0,-288.87 0,-104 0,-68.8265 35.4837,-46.3194 66.5059,-33.3633"/>
<polygon fill="forestgreen" stroke="forestgreen" points="67.924,-36.5665 75.946,-29.6457 65.359,-30.0534 67.924,-36.5665"/>
<text text-anchor="middle" x="13.5" y="-188.3" font-family="Times New Roman,serif" font-size="14.00"> (10)</text>
</g>
<!-- ERROR_RETURN_ -->
<g id="node9" class="node"><title>ERROR_RETURN_</title>
<ellipse fill="none" stroke="#1c86ee" cx="315" cy="-18" rx="73.387" ry="18"/>
<text text-anchor="middle" x="315" y="-14.3" font-family="Times New Roman,serif" font-size="14.00" fill="crimson">ERROR_ Return</text>
</g>
<!-- INITIAL_STATE_&#45;&gt;ERROR_RETURN_ -->
<g id="edge2" class="edge"><title>INITIAL_STATE_&#45;&gt;ERROR_RETURN_</title>
<path fill="none" stroke="forestgreen" stroke-dasharray="5,2" d="M338.839,-381.719C359.627,-357.44 381,-323.948 381,-288.87 381,-288.87 381,-288.87 381,-104 381,-79.2112 363.271,-57.2853 346.191,-41.9133"/>
<polygon fill="forestgreen" stroke="forestgreen" points="348.338,-39.1441 338.455,-35.325 343.799,-44.4734 348.338,-39.1441"/>
<text text-anchor="middle" x="391" y="-188.3" font-family="Times New Roman,serif" font-size="14.00"> (2)</text>
</g>
<!-- CHECK_DYNAMIC_SETTINGS_ -->
<g id="node3" class="node"><title>CHECK_DYNAMIC_SETTINGS_</title>
<ellipse fill="none" stroke="#1c86ee" cx="275" cy="-287.87" rx="77.5641" ry="26.7407"/>
<text text-anchor="middle" x="275" y="-291.67" font-family="Times New Roman,serif" font-size="14.00" fill="crimson">Check Dynamic </text>
<text text-anchor="middle" x="275" y="-276.67" font-family="Times New Roman,serif" font-size="14.00" fill="crimson">Settings</text>
</g>
<!-- DO_SIM_CHECK_&#45;&gt;CHECK_DYNAMIC_SETTINGS_ -->
<g id="edge5" class="edge"><title>DO_SIM_CHECK_&#45;&gt;CHECK_DYNAMIC_SETTINGS_</title>
<path fill="none" stroke="#ff1493" stroke-dasharray="5,2" d="M159.857,-287.87C168.67,-287.87 177.82,-287.87 186.938,-287.87"/>
<polygon fill="#ff1493" stroke="#ff1493" points="187.198,-291.37 197.197,-287.87 187.197,-284.37 187.198,-291.37"/>
<text text-anchor="middle" x="178.49" y="-294.67" font-family="Times New Roman,serif" font-size="14.00"> (2)</text>
</g>
<!-- DO_SIM_CHECK_&#45;&gt;ERROR_ -->
<g id="edge4" class="edge"><title>DO_SIM_CHECK_&#45;&gt;ERROR_</title>
<path fill="none" stroke="forestgreen" stroke-dasharray="5,2" d="M94.3363,-260.944C95.1189,-217.857 97.6867,-128.837 106,-54 106.286,-51.4265 106.639,-48.7554 107.031,-46.0879"/>
<polygon fill="forestgreen" stroke="forestgreen" points="110.515,-46.4644 108.664,-36.0325 103.606,-45.3419 110.515,-46.4644"/>
<text text-anchor="middle" x="109" y="-144.8" font-family="Times New Roman,serif" font-size="14.00"> (1)</text>
</g>
<!-- FIXUP_ -->
<g id="node4" class="node"><title>FIXUP_</title>
<ellipse fill="none" stroke="#1c86ee" cx="176" cy="-192" rx="31.6951" ry="18"/>
<text text-anchor="middle" x="176" y="-188.3" font-family="Times New Roman,serif" font-size="14.00" fill="crimson">Fixup</text>
</g>
<!-- CHECK_DYNAMIC_SETTINGS_&#45;&gt;FIXUP_ -->
<g id="edge6" class="edge"><title>CHECK_DYNAMIC_SETTINGS_&#45;&gt;FIXUP_</title>
<path fill="none" stroke="#ff1493" stroke-dasharray="5,2" d="M236.355,-264.309C227.187,-258.034 217.811,-250.784 210,-243 202.683,-235.708 195.967,-226.634 190.472,-218.226"/>
<polygon fill="#ff1493" stroke="#ff1493" points="193.278,-216.112 185.017,-209.478 187.339,-219.816 193.278,-216.112"/>
<text text-anchor="middle" x="220" y="-231.8" font-family="Times New Roman,serif" font-size="14.00"> (1)</text>
</g>
<!-- EXECUTE_ -->
<g id="node6" class="node"><title>EXECUTE_</title>
<ellipse fill="none" stroke="#1c86ee" cx="190" cy="-105" rx="39.7935" ry="18"/>
<text text-anchor="middle" x="190" y="-101.3" font-family="Times New Roman,serif" font-size="14.00" fill="crimson">Execute</text>
</g>
<!-- CHECK_DYNAMIC_SETTINGS_&#45;&gt;EXECUTE_ -->
<g id="edge7" class="edge"><title>CHECK_DYNAMIC_SETTINGS_&#45;&gt;EXECUTE_</title>
<path fill="none" stroke="forestgreen" stroke-dasharray="5,2" d="M263.602,-261.149C250.535,-231.879 228.299,-182.725 208,-141 206.535,-137.989 204.972,-134.849 203.401,-131.739"/>
<polygon fill="forestgreen" stroke="forestgreen" points="206.427,-129.969 198.758,-122.659 200.195,-133.156 206.427,-129.969"/>
<text text-anchor="middle" x="251" y="-188.3" font-family="Times New Roman,serif" font-size="14.00"> (1)</text>
</g>
<!-- FIXUP_&#45;&gt;DO_SIM_CHECK_ -->
<g id="edge9" class="edge"><title>FIXUP_&#45;&gt;DO_SIM_CHECK_</title>
<path fill="none" stroke="forestgreen" stroke-dasharray="5,2" d="M162.554,-208.392C151.699,-220.819 136.047,-238.737 122.438,-254.315"/>
<polygon fill="forestgreen" stroke="forestgreen" points="119.487,-252.373 115.545,-262.207 124.759,-256.978 119.487,-252.373"/>
<text text-anchor="middle" x="155" y="-231.8" font-family="Times New Roman,serif" font-size="14.00"> (1)</text>
</g>
<!-- FIXUP_DONE_ -->
<g id="node5" class="node"><title>FIXUP_DONE_</title>
<ellipse fill="none" stroke="#1c86ee" cx="473" cy="-192" rx="53.8905" ry="18"/>
<text text-anchor="middle" x="473" y="-188.3" font-family="Times New Roman,serif" font-size="14.00" fill="crimson">Fixup Done</text>
</g>
<!-- FIXUP_&#45;&gt;FIXUP_DONE_ -->
<g id="edge11" class="edge"><title>FIXUP_&#45;&gt;FIXUP_DONE_</title>
<path fill="none" stroke="forestgreen" stroke-dasharray="5,2" d="M196.461,-205.997C213.233,-216.574 238.032,-230.225 262,-236 321.231,-250.272 390.47,-228.592 433.027,-210.918"/>
<polygon fill="forestgreen" stroke="forestgreen" points="434.651,-214.03 442.469,-206.88 431.898,-207.594 434.651,-214.03"/>
<text text-anchor="middle" x="272" y="-231.8" font-family="Times New Roman,serif" font-size="14.00"> (1)</text>
</g>
<!-- FIXUP_&#45;&gt;EXECUTE_ -->
<g id="edge10" class="edge"><title>FIXUP_&#45;&gt;EXECUTE_</title>
<path fill="none" stroke="#ff1493" stroke-dasharray="5,2" d="M164.319,-175.162C158.516,-165.291 153.592,-152.353 158,-141 159.654,-136.74 162.095,-132.683 164.903,-128.939"/>
<polygon fill="#ff1493" stroke="#ff1493" points="167.613,-131.156 171.477,-121.291 162.305,-126.593 167.613,-131.156"/>
<text text-anchor="middle" x="168" y="-144.8" font-family="Times New Roman,serif" font-size="14.00"> (1)</text>
</g>
<!-- FIXUP_&#45;&gt;EXECUTE_ -->
<g id="edge14" class="edge"><title>FIXUP_&#45;&gt;EXECUTE_</title>
<path fill="none" stroke="forestgreen" stroke-dasharray="5,2" d="M178.833,-173.799C180.75,-162.163 183.322,-146.548 185.514,-133.237"/>
<polygon fill="forestgreen" stroke="forestgreen" points="188.999,-133.611 187.171,-123.175 182.092,-132.474 188.999,-133.611"/>
<text text-anchor="middle" x="194" y="-144.8" font-family="Times New Roman,serif" font-size="14.00"> (1)</text>
</g>
<!-- FIXUP_&#45;&gt;ERROR_ -->
<g id="edge8" class="edge"><title>FIXUP_&#45;&gt;ERROR_</title>
<path fill="none" stroke="forestgreen" stroke-dasharray="5,2" d="M159.64,-176.289C146.703,-163.576 129.459,-143.983 121,-123 111.087,-98.4116 109.565,-67.9652 110.08,-46.3844"/>
<polygon fill="forestgreen" stroke="forestgreen" points="113.582,-46.4086 110.485,-36.2764 106.588,-46.1282 113.582,-46.4086"/>
<text text-anchor="middle" x="131" y="-101.3" font-family="Times New Roman,serif" font-size="14.00"> (5)</text>
</g>
<!-- FIXUP_DONE_&#45;&gt;INITIAL_STATE_ -->
<g id="edge12" class="edge"><title>FIXUP_DONE_&#45;&gt;INITIAL_STATE_</title>
<path fill="none" stroke="forestgreen" stroke-dasharray="5,2" d="M467.256,-210.28C456.588,-240.55 431.438,-304.091 395,-347.74 383.599,-361.398 369.12,-373.979 354.924,-384.662"/>
<polygon fill="forestgreen" stroke="forestgreen" points="352.633,-382.001 346.624,-390.727 356.763,-387.653 352.633,-382.001"/>
<text text-anchor="middle" x="456" y="-284.17" font-family="Times New Roman,serif" font-size="14.00"> (1)</text>
</g>
<!-- FIXUP_DONE_&#45;&gt;ERROR_RETURN_ -->
<g id="edge13" class="edge"><title>FIXUP_DONE_&#45;&gt;ERROR_RETURN_</title>
<path fill="none" stroke="forestgreen" stroke-dasharray="5,2" d="M467.346,-173.969C457.127,-145.558 433.042,-88.2383 395,-54 387.394,-47.1545 378.237,-41.4856 368.876,-36.8488"/>
<polygon fill="forestgreen" stroke="forestgreen" points="370.046,-33.5349 359.497,-32.5507 367.129,-39.8985 370.046,-33.5349"/>
<text text-anchor="middle" x="454" y="-101.3" font-family="Times New Roman,serif" font-size="14.00"> (1)</text>
</g>
<!-- EXECUTE_&#45;&gt;ERROR_ -->
<g id="edge15" class="edge"><title>EXECUTE_&#45;&gt;ERROR_</title>
<path fill="none" stroke="forestgreen" stroke-dasharray="5,2" d="M175.329,-88.0122C163.637,-75.2711 147.088,-57.2372 133.84,-42.7996"/>
<polygon fill="forestgreen" stroke="forestgreen" points="136.211,-40.2067 126.871,-35.2052 131.053,-44.9395 136.211,-40.2067"/>
<text text-anchor="middle" x="169.5" y="-57.8" font-family="Times New Roman,serif" font-size="14.00"> (14)</text>
</g>
<!-- EXECUTE_&#45;&gt;ERROR_RETURN_ -->
<g id="edge16" class="edge"><title>EXECUTE_&#45;&gt;ERROR_RETURN_</title>
<path fill="none" stroke="forestgreen" stroke-dasharray="5,2" d="M211.205,-89.5809C230.759,-76.2839 260.075,-56.349 282.569,-41.0531"/>
<polygon fill="forestgreen" stroke="forestgreen" points="284.826,-43.7508 291.127,-35.2334 280.89,-37.9623 284.826,-43.7508"/>
<text text-anchor="middle" x="270" y="-57.8" font-family="Times New Roman,serif" font-size="14.00"> (1)</text>
</g>
<!-- RE_EXECUTE_ -->
<g id="node7" class="node"><title>RE_EXECUTE_</title>
<ellipse fill="none" stroke="#1c86ee" cx="300" cy="-105" rx="52.7911" ry="18"/>
<text text-anchor="middle" x="300" y="-101.3" font-family="Times New Roman,serif" font-size="14.00" fill="crimson">Re&#45;Execute</text>
</g>
<!-- RE_EXECUTE_&#45;&gt;CHECK_DYNAMIC_SETTINGS_ -->
<g id="edge17" class="edge"><title>RE_EXECUTE_&#45;&gt;CHECK_DYNAMIC_SETTINGS_</title>
<path fill="none" stroke="forestgreen" stroke-dasharray="5,2" d="M299.026,-123.411C297.382,-149.54 293.481,-200.377 286,-243 285.533,-245.663 284.992,-248.404 284.406,-251.153"/>
<polygon fill="forestgreen" stroke="forestgreen" points="280.967,-250.491 282.137,-261.021 287.789,-252.06 280.967,-250.491"/>
<text text-anchor="middle" x="305" y="-188.3" font-family="Times New Roman,serif" font-size="14.00"> (1)</text>
</g>
<!-- ERROR_&#45;&gt;ERROR_RETURN_ -->
<g id="edge18" class="edge"><title>ERROR_&#45;&gt;ERROR_RETURN_</title>
<path fill="none" stroke="forestgreen" stroke-dasharray="5,2" d="M158.827,-18C180.336,-18 206.513,-18 231.241,-18"/>
<polygon fill="forestgreen" stroke="forestgreen" points="231.363,-21.5001 241.363,-18 231.363,-14.5001 231.363,-21.5001"/>
<text text-anchor="middle" x="200.176" y="-24.8" font-family="Times New Roman,serif" font-size="14.00"> (1)</text>
</g>
</g>
</svg>
